<?xml version="1.0" standalone="no"?>
<!DOCTYPE svg PUBLIC "-//W3C//DTD SVG 1.1//EN" "http://www.w3.org/Graphics/SVG/1.1/DTD/svg11.dtd" >
<!--
2013-9-30: Created.
-->
<svg>
<metadata>
Created by iconfont
</metadata>
<defs>

<font id="iconfont" horiz-adv-x="1024" >
  <font-face
    font-family="iconfont"
    font-weight="500"
    font-stretch="normal"
    units-per-em="1024"
    ascent="896"
    descent="-128"
  />
    <missing-glyph />
    
    <glyph glyph-name="diannao1" unicode="&#59410;" d="M710 69c17.673 0 32-14.327 32-32 0-17.673-14.327-32-32-32H314c-17.673 0-32 14.327-32 32 0 17.673 14.327 32 32 32h396z m148 693c35.346 0 64-28.654 64-64v-454c0-35.346-28.654-64-64-64H166c-35.346 0-64 28.654-64 64V698c0 35.346 28.654 64 64 64h692z m0-64H166v-454h692V698z"  horiz-adv-x="1024" />

    
    <glyph glyph-name="bianji" unicode="&#59416;" d="M880 48c17.673 0 32-14.327 32-32 0-17.673-14.327-32-32-32H144c-17.673 0-32 14.327-32 32 0 17.673 14.327 32 32 32h736z m-48.935 695.065c56.674-56.673 57.24-148.207 1.7-205.578l-1.7-1.728L405.68 110.373A32.022 32.022 0 0 0 383.561 101H221c-17.496 0-31.713 14.042-32 31.47V295.053a32 32 0 0 0 9.016 22.265l0.357 0.362 425.386 425.386c57.246 57.247 150.06 57.247 207.306 0zM605.973 634.772L253 281.798V165h116.796L722.77 517.975 605.973 634.772z m64.014 63.996l-0.973-0.957-17.786-17.784L768.025 563.23l17.786 17.784c31.93 31.93 32.249 83.5 0.957 115.823l-0.957 0.974c-31.93 31.93-83.501 32.249-115.824 0.957z"  horiz-adv-x="1024" />

    
    <glyph glyph-name="gongju" unicode="&#59421;" d="M273.953 758.06c105.491 50.382 231.283 28.8 313.947-53.864 76.877-76.877 100.926-191.056 63.39-291.517l-0.492-1.292 228.577-228.578c45.705-45.705 46.162-119.523 1.371-165.79l-1.371-1.394c-45.705-45.705-119.523-46.162-165.79-1.371l-1.394 1.371-228.578 228.577-1.292-0.493c-99.38-37.131-212.186-13.996-289.024 60.93l-2.493 2.46c-82.664 82.665-104.246 208.457-53.865 313.948 9.423 19.73 35.36 24.361 51.032 9.299l0.471-0.463 132.879-132.878h76.674v76.674L265.117 706.558c-15.461 15.46-11.182 41.458 8.243 51.212l0.593 0.29z m268.692-99.119C490.587 711 416.257 731.515 346.515 715.88l-0.171-0.04 106.279-106.278a32 32 0 0 0 9.368-22.12l0.004-0.508v-121.93c0-17.496-14.042-31.712-31.47-31.995l-0.53-0.004h-121.93l-0.49 0.004-0.565 0.013-0.525 0.021-0.523 0.03a31.843 31.843 0 0 0-9.31 2.027l-0.628 0.248-0.46 0.191a31.78 31.78 0 0 0-0.46 0.199l-0.456 0.206a31.828 31.828 0 0 0-7.165 4.557l-0.613 0.53-0.286 0.255-0.387 0.357-0.408 0.39-0.353 0.347L179.16 548.656l-0.04-0.172c-15.444-68.891 4.386-142.259 55.048-194.215l1.89-1.914c62.851-62.851 158.166-79.725 238.676-42.512l2.435 1.144a32 32 0 0 0 36.093-5.928l0.325-0.32 243.859-243.86c21.173-21.172 55.501-21.172 76.674 0 20.962 20.962 21.171 54.817 0.629 76.036l-0.629 0.64-243.858 243.858a32 32 0 0 0-6.443 36.005l0.194 0.413c38.693 81.017 22.118 177.625-41.368 241.11z"  horiz-adv-x="1024" />

    
    <glyph glyph-name="zhiban" unicode="&#59423;" d="M694 784c17.673 0 32-14.327 32-32v-31h122c35.346 0 64-28.654 64-64v-219c0-17.673-14.327-32-32-32-17.496 0-31.713 14.042-31.996 31.47L848 438v36H186c-3.492 0-6.854 0.56-10 1.593V48h251v-0.015c0.333 0.01 0.666 0.015 1 0.015 17.673 0 32-14.327 32-32 0-17.673-14.327-32-32-32-0.334 0-0.667 0-1 0.015V-16H176c-35.346 0-64 28.654-64 64V657c0 35.346 28.654 64 64 64h128v31c0 17.673 14.327 32 32 32 17.673 0 32-14.327 32-32v-31h294v31c0 17.673 14.327 32 32 32zM428 220c17.673 0 32-14.327 32-32 0-17.496-14.042-31.713-31.47-31.996L428 156H312c-17.673 0-32 14.327-32 32 0 17.673 14.327 32 32 32h116z m-116 86c-17.673 0-32 14.327-32 32 0 17.673 14.327 32 32 32h150c17.673 0 32-14.327 32-32 0-17.496-14.042-31.713-31.47-31.996L462 306H312z m-8 351H176v-120.593A31.973 31.973 0 0 0 186 538h662V657H726v-31c0-17.673-14.327-32-32-32-17.673 0-32 14.327-32 32v31H368v-31c0-17.673-14.327-32-32-32-17.673 0-32 14.327-32 32v31zM742 376c122.607 0 222-99.393 222-222s-99.393-222-222-222-222 99.393-222 222 99.393 222 222 222z m0-60c-89.47 0-162-72.53-162-162s72.53-162 162-162 162 72.53 162 162-72.53 162-162 162z m-3.289-37.156c16.403 0 29.731-13.164 29.996-29.503l0.004-0.497v-74.132h29.133c16.24 0 29.465-12.903 29.985-29.016l0.011-0.489 0.004-0.496c0-16.403-13.164-29.73-29.503-29.996l-0.497-0.004h-59a29.9 29.9 0 0 0-21.303 8.877 29.902 29.902 0 0 0-8.826 20.752l-0.004 0.504v104c0 16.569 13.432 30 30 30z"  horiz-adv-x="1024" />

    
    <glyph glyph-name="xunke" unicode="&#59426;" d="M704 50.96c17.673 0 32-14.319 32-31.98 0-17.486-14.042-31.693-31.47-31.976L704-13H320c-17.673 0-32 14.318-32 31.98 0 17.485 14.042 31.693 31.47 31.975l0.53 0.004h384zM870 771c35.346 0 64-28.636 64-63.96v-479.693c0-35.324-28.654-63.96-64-63.96H158c-35.346 0-64 28.636-64 63.96V707.04C94 742.364 122.654 771 158 771h712z m0-59.962H158a4.007 4.007 0 0 1-4-3.798v-479.893a3.999 3.999 0 0 1 3.8-3.993l0.2-0.005h712a4.007 4.007 0 0 1 4 3.798V707.041a3.999 3.999 0 0 1-3.8 3.992l-0.2 0.005z m-450.897-110.58c10.919 16.279 32.929 20.85 49.454 10.164l180.947-117.01a35.988 35.988 0 0 0 11.205-11.518c10.327-16.98 4.926-39.11-12.064-49.43L467.7 322.748A36.017 36.017 0 0 0 449 317.514c-19.882 0-36 16.107-36 35.977V580.416a35.96 35.96 0 0 0 5.776 19.545zM469 543.677v-154.645l123.312 74.905L469 543.677z"  horiz-adv-x="1024" />

    
    <glyph glyph-name="xuexiao" unicode="&#59428;" d="M259.169 456.311V569.433l-4.55-3.64-0.145-0.096c-14.689-9.788-33.52-6.4-43.65 7.52-9.803 13.472-6.59 31.989 6.84 43.287l0.503 0.416L478.01 804.608c20.846 15.048 48.625 15.199 68.558 0.388l0.529-0.399 259.686-187.575 0.358-0.242c14.047-9.706 17.175-28.8 7.72-42.718l-0.29-0.42-0.305-0.425c-9.791-13.457-28.89-17.175-42.542-8.282l-0.412 0.273-0.13 0.09-0.176 0.063-0.25 0.103-0.255 0.12a4.95 4.95 0 0 0-2.037 1.87l-0.126 0.222-0.036 0.07-3.473 2.777v-114.212h106.228c32.115 0 58.586-25.82 59.627-57.682l0.024-0.968 0.008-0.98-0.001-382.386 0.122-0.015c15.164-1.93 26.677-14.394 27.148-30.013l0.015-0.474v-0.523c0-17.306-13.522-30.994-30.76-31.27H97.283C79.796-48 66-34.211 66-16.73c0 15.921 11.445 28.78 26.7 30.948l0.463 0.062 0.121 0.015V396.68c0 32.1 25.833 58.559 57.71 59.6l0.968 0.023 0.981 0.008H259.17z m302.307-338.51H459.249V15.63h102.227V117.801zM259.169 393.772H156.942V15.63h102.227V393.772z m251.73 359.019L321.736 616.068c0.51-130.912 0.547-197.228 0.11-198.95l-0.11-401.488h74.945V131.618c0 29.137 25.844 49.404 58.663 49.807l0.996 0.006h110.228c32.26 0 59.117-20.24 59.65-48.94l0.009-0.873-0.001-115.988h76.035V613.396L510.899 752.791z m253.929-359.018v-378.142h102.228V393.773H764.828z m-253.92 172.708c63.325 0 114.228-50.877 114.228-114.17 0-62.575-51.272-114.171-114.228-114.171-63.324 0-114.227 50.876-114.227 114.17 0 63.294 50.903 114.171 114.227 114.171z m0-61.45c-28.35 0-51.659-23.296-51.659-51.63 0-28.333 23.31-51.63 51.66-51.63 28.35 0 51.659 23.297 51.659 51.63 0 28.333-23.31 51.63-51.66 51.63z"  horiz-adv-x="1024" />

    
    <glyph glyph-name="yingyong1" unicode="&#59429;" d="M494.347 835.955a30.08 30.08 0 0 0 29.701 0.245l0.432-0.245 367.413-212h-0.053a30.254 30.254 0 0 0 15.093-25.659v-424.528a30.24 30.24 0 0 0-14.684-25.892l-0.409-0.241-367.307-212.107a30.773 30.773 0 0 0-29.693-0.242l-0.44 0.242-367.36 212.107A30.2 30.2 0 0 0 112 173.298V597.82a30.233 30.233 0 0 0 14.632 25.892l0.408 0.242 367.307 212z m15.069-65.198L176 578.318v-385.05l333.465-192.536 333.468 192.566V578.313l-1.391 0.805-332.126 191.639zM257.498 522.562l-0.157 0.078-0.94-1.634a32.187 32.187 0 0 1-3.191-24.429l0.134-0.483a32.187 32.187 0 0 1 14.885-19.046L476.933 356.56v-238.312c0-17.798 14.336-32.133 32.134-32.133a32.078 32.078 0 0 1 22.737 9.396l0.359 0.364a32.08 32.08 0 0 1 9.037 22.377V356.188l209.507 121.021c14.722 9.238 19.482 28.383 10.837 43.377l-0.262 0.447c-8.76 14.655-27.488 19.94-42.642 11.944L509.439 412.132 300.36 532.887c-14.808 8.4-33.444 3.821-42.74-10.14l-0.122-0.185z"  horiz-adv-x="1024" />

    
    <glyph glyph-name="xuexiao1" unicode="&#59430;" d="M259.169 456.311V569.433l-4.55-3.64-0.145-0.096c-14.689-9.788-33.52-6.4-43.65 7.52-9.803 13.472-6.59 31.989 6.84 43.287l0.503 0.416L478.01 804.608c20.846 15.048 48.625 15.199 68.558 0.388l0.529-0.399 259.686-187.575 0.358-0.242c14.047-9.706 17.175-28.8 7.72-42.718l-0.29-0.42-0.305-0.425c-9.791-13.457-28.89-17.175-42.542-8.282l-0.412 0.273-0.13 0.09-0.176 0.063-0.25 0.103-0.255 0.12a4.95 4.95 0 0 0-2.037 1.87l-0.126 0.222-0.036 0.07-3.473 2.777v-114.212h106.228c32.115 0 58.586-25.82 59.627-57.682l0.024-0.968 0.008-0.98-0.001-382.386 0.122-0.015c15.164-1.93 26.677-14.394 27.148-30.013l0.015-0.474v-0.523c0-17.306-13.522-30.994-30.76-31.27H97.283C79.796-48 66-34.211 66-16.73c0 15.921 11.445 28.78 26.7 30.948l0.463 0.062 0.121 0.015V396.68c0 32.1 25.833 58.559 57.71 59.6l0.968 0.023 0.981 0.008H259.17z m302.307-338.51H459.249V15.63h102.227V117.801zM259.169 393.772H156.942V15.63h102.227V393.772z m251.73 359.019L321.736 616.068c0.51-130.912 0.547-197.228 0.11-198.95l-0.11-401.488h74.945V131.618c0 29.137 25.844 49.404 58.663 49.807l0.996 0.006h110.228c32.26 0 59.117-20.24 59.65-48.94l0.009-0.873-0.001-115.988h76.035V613.396L510.899 752.791z m253.929-359.018v-378.142h102.228V393.773H764.828z m-253.92 172.708c63.325 0 114.228-50.877 114.228-114.17 0-62.575-51.272-114.171-114.228-114.171-63.324 0-114.227 50.876-114.227 114.17 0 63.294 50.903 114.171 114.227 114.171z m0-61.45c-28.35 0-51.659-23.296-51.659-51.63 0-28.333 23.31-51.63 51.66-51.63 28.35 0 51.659 23.297 51.659 51.63 0 28.333-23.31 51.63-51.66 51.63z"  horiz-adv-x="1024" />

    
    <glyph glyph-name="xuexiao2" unicode="&#59431;" d="M528.147 798.523L926.78 559.09c14.85-8.92 19.657-28.189 10.738-43.039a31.365 31.365 0 0 0-26.888-15.216H867.99v-468.921h29.797c18.477 0 33.456-14.98 33.456-33.457v-0.002c0-18.477-14.979-33.456-33.456-33.456H126.21c-18.477 0-33.456 14.979-33.456 33.456v0.002c0 18.477 14.979 33.456 33.456 33.456l29.796 0.001V500.836h-42.64C96.043 500.836 82 514.879 82 532.202a31.366 31.366 0 0 0 15.216 26.889L495.848 798.523a31.364 31.364 0 0 0 32.299 0z m272.93-297.687h-578.16v-468.921h578.16V500.836zM413.198 397.328c18.477 0 33.456-14.979 33.456-33.456v-232.11c0-18.478-14.979-33.457-33.456-33.457-18.477 0-33.456 14.98-33.456 33.456V363.872c0 18.477 14.979 33.456 33.456 33.456z m197.6 2.091c18.476 0 33.455-14.979 33.455-33.456v-232.11c0-18.478-14.979-33.456-33.456-33.456-18.477 0-33.456 14.978-33.456 33.455V365.963c0 18.477 14.979 33.456 33.456 33.456z m-98.8 330.748L241.586 567.75h540.822l-270.41 162.417z"  horiz-adv-x="1024" />

    
    <glyph glyph-name="zan" unicode="&#59433;" d="M551.27 779.28c26.466 0 52.297-7.957 73.884-22.816 32.648-22.515 50.251-62.626 50.251-113.116v-131.73l0.124-0.043c3.113-1.041 6.937-1.724 10.701-1.784l0.538-0.004h109.02c61.368 0 112.056-46.765 113.466-106.08 0.384-16.167-3.435-43.685-12.559-93.786l-0.862-4.713a7311.163 7311.163 0 0 0-3.216-17.436l-0.269-1.441c-3.356-18.011-6.876-36.236-15.48-79.97L855.04 95.705l-0.142-1.052c-9.774-68.406-58.469-105.188-135.578-105.924l-2.37-0.01H375.195c-20.38 0-39.583 5.17-56.194 14.244V-14H174.635C140.34-14 112 13.16 112 47.358V430.642C112 464.84 140.34 492 174.635 492H319l0.002-0.46c34.377 5.978 58.617 15.76 74.753 29.74 20.368 17.649 30.536 44.674 30.536 87.039v48.713c0 67.85 57.167 122.249 126.98 122.249z m0-58.56c-38.101 0-68.417-28.848-68.417-63.688v-48.713c0-58.145-16.289-101.439-50.75-131.298-26.762-23.188-63-37.158-111.455-44.547l-0.368-0.054v-335.245c0-26.808 23.78-49.437 53.997-49.887l0.917-0.007h341.757c26.772 0 46.174 5.246 58.775 14.755 11.63 8.776 18.784 22.267 21.386 42.273l0.124 0.953 21.1 106.96c9.242 46.947 12.913 65.924 16.346 84.329l0.549 2.944 0.274 1.476c0.868 4.684 1.749 9.471 2.728 14.808l1.045 5.723c8.165 44.96 11.681 70.267 11.43 80.813-0.635 26.764-24.64 48.91-54.92 48.91h-109.02c-14.56 0-29.391 3.455-41.44 9.715-7.023 3.648-13.157 8.253-18 13.939-6.541 7.678-10.484 17.063-10.484 27.46V643.348c0 32.531-9.553 54.297-24.915 64.892-11.755 8.09-26 12.48-40.658 12.48zM255 428h-79v-378h79V428z"  horiz-adv-x="1024" />

    
    <glyph glyph-name="saoyisao" unicode="&#59434;" d="M912 416.705c17.673 0 32-14.327 32-32 0-17.497-14.042-31.714-31.47-31.996l-0.53-0.004H112c-17.673 0-32 14.326-32 32 0 17.496 14.042 31.713 31.47 31.995l0.53 0.005h800zM184 264c17.673 0 32-14.327 32-32v-144h144c17.673 0 32-14.327 32-32 0-17.673-14.327-32-32-32H184c-17.673 0-32 14.327-32 32V232c0 17.673 14.327 32 32 32z m655 0c17.673 0 32-14.327 32-32v-176c0-17.673-14.327-32-32-32H663c-17.673 0-32 14.327-32 32 0 17.673 14.327 32 32 32h144V232c0 17.673 14.327 32 32 32zM360 744c17.673 0 32-14.327 32-32 0-17.673-14.327-32-32-32H216v-144c0-17.673-14.327-32-32-32-17.673 0-32 14.327-32 32V712c0 17.673 14.327 32 32 32z m479 0c17.673 0 32-14.327 32-32v-176c0-17.673-14.327-32-32-32-17.673 0-32 14.327-32 32V680H663c-17.673 0-32 14.327-32 32 0 17.673 14.327 32 32 32h176z"  horiz-adv-x="1024" />

    
    <glyph glyph-name="jiantou4" unicode="&#59435;" d="M623.25 717.999l0.377-0.372 222.396-222.396 0.305-0.315 0.256-0.27 0.31-0.335a31.851 31.851 0 0 0 5.53-8.425l0.284-0.652a31.861 31.861 0 0 0 2.499-11.454l0.015-0.498v-0.504c0-4.208-0.812-8.226-2.288-11.907l-0.246-0.596a31.817 31.817 0 0 0-5.031-8.163l-0.534-0.613c-0.188-0.211-0.38-0.42-0.574-0.628l-0.355-0.37-0.344-0.35-222.223-222.223c-12.496-12.497-32.758-12.497-45.254 0C566 240.3 565.877 260.282 578 272.806l0.372 0.377 167.593 167.595H401c-92.784 0-168-75.216-168-168 0-91.857 73.72-166.494 165.222-167.978l2.778-0.022h44.444c17.674 0 32-14.327 32-32 0-17.497-14.041-31.713-31.47-32H401c-128.13 0-232 103.87-232 232 0 126.85 101.803 229.92 228.163 231.969l3.837 0.03 344.967 0.001-167.594 167.595c-12.497 12.496-12.497 32.758 0 45.254 12.248 12.249 31.954 12.492 44.5 0.732l0.377-0.36z"  horiz-adv-x="1024" />

    
    <glyph glyph-name="shuju" unicode="&#59443;" d="M879 48c17.673 0 32-14.327 32-32 0-17.673-14.327-32-32-32H143c-17.673 0-32 14.327-32 32 0 17.673 14.327 32 32 32h736zM313 784c17.673 0 32-14.327 32-32v-632c0-17.673-14.327-32-32-32H177c-17.673 0-32 14.327-32 32V752c0 17.673 14.327 32 32 32h136z m264-336c17.673 0 32-14.327 32-32v-296c0-17.673-14.327-32-32-32H441c-17.673 0-32 14.327-32 32V416c0 17.673 14.327 32 32 32h136z m264 192c17.673 0 32-14.327 32-32v-488c0-17.673-14.327-32-32-32H705c-17.673 0-32 14.327-32 32V608c0 17.673 14.327 32 32 32h136z m-560 80h-72v-568h72V720z m264-336h-72v-232h72V384z m264 192h-72v-424h72V576z"  horiz-adv-x="1024" />

    
    <glyph glyph-name="chakan" unicode="&#59446;" d="M512.575 679.4c61.675 0 120.17-15.864 175.086-45.136 45.883-24.457 87.992-57.554 126.36-97.094 29.603-30.506 55.326-63.098 77.128-95.713l0.816-1.224 1.609-2.428a663.99 663.99 0 0 0 3.123-4.783l1.515-2.352 1.484-2.326c0.489-0.771 0.973-1.538 1.452-2.3l1.42-2.27 1.39-2.243 0.682-1.11 1.342-2.2 1.311-2.17 1.28-2.14 1.247-2.108c0.205-0.349 0.41-0.696 0.612-1.043l1.026-1.76 0.82-1.42 1.168-2.044 1.097-1.942 0.385-0.691a30.521 30.521 0 0 0 6.625-19.408 30.526 30.526 0 0 0-6.624-19.447l-0.386-0.692-1.097-1.942-0.77-1.352-0.804-1.396-0.836-1.442-0.604-1.034-1.232-2.093-0.628-1.059-1.279-2.14-1.31-2.169-1.343-2.2-1.373-2.228-0.699-1.125-1.42-2.27a621.98 621.98 0 0 0-1.452-2.3l-1.484-2.326-1.515-2.352a661.053 661.053 0 0 0-2.33-3.577l-1.594-2.417c-0.536-0.81-1.077-1.623-1.624-2.441-21.802-32.615-47.525-65.207-77.128-95.713-38.368-39.54-80.477-72.637-126.36-97.094-54.916-29.272-113.411-45.136-175.086-45.136-61.675 0-120.17 15.864-175.086 45.136-45.883 24.457-87.992 57.554-126.36 97.094-29.603 30.506-55.326 63.098-77.128 95.713l-0.816 1.224-1.609 2.428a663.99 663.99 0 0 0-3.123 4.783l-1.515 2.352-1.484 2.326c-0.489 0.771-0.973 1.538-1.452 2.3l-1.42 2.27-1.39 2.243-0.682 1.11-1.342 2.2-1.311 2.17-1.28 2.14-1.247 2.108c-0.205 0.349-0.41 0.696-0.612 1.043l-1.026 1.76-0.82 1.42-1.168 2.044-1.097 1.942-0.385 0.691a30.521 30.521 0 0 0-6.626 19.391 30.529 30.529 0 0 0 6.625 19.464l0.386 0.692 1.097 1.942 0.77 1.352 0.804 1.396 0.836 1.442 0.604 1.034 1.232 2.093 0.628 1.059 1.279 2.14 1.31 2.169 1.343 2.2 1.373 2.228 0.699 1.125 1.42 2.27c0.48 0.762 0.963 1.529 1.452 2.3l1.484 2.326 1.515 2.352a661.053 661.053 0 0 0 2.33 3.577l1.594 2.417c0.536 0.81 1.077 1.623 1.624 2.441 21.802 32.615 47.525 65.207 77.128 95.713 38.368 39.54 80.477 72.637 126.36 97.094C392.405 663.536 450.9 679.4 512.575 679.4z m0-60.8c-51.252 0-100.038-13.23-146.487-37.99-39.888-21.261-77.097-50.507-111.325-85.78-26.861-27.681-50.342-57.433-70.216-87.162l-1.47-2.21-0.725-1.097-1.427-2.174-1.397-2.149c-0.46-0.712-0.916-1.42-1.367-2.123l-1.338-2.097-1.308-2.07-1.278-2.043-0.628-1.011-1.234-2-1.203-1.973-1.174-1.942-0.78-1.304 0.78-1.304 1.174-1.942 1.203-1.972 1.234-2c0.208-0.337 0.417-0.674 0.628-1.012l1.278-2.043 1.308-2.07 1.338-2.097 0.68-1.058 1.382-2.136 0.702-1.078 1.427-2.174 1.456-2.199 0.74-1.108c19.873-29.73 43.354-59.48 70.215-87.162 34.228-35.273 71.437-64.519 111.325-85.78 46.45-24.76 95.235-37.99 146.487-37.99 51.252 0 100.038 13.23 146.487 37.99 39.888 21.261 77.097 50.507 111.325 85.78 26.861 27.681 50.342 57.433 70.216 87.162l1.47 2.21 0.725 1.097 1.427 2.174 1.397 2.149c0.46 0.712 0.916 1.42 1.367 2.123l1.338 2.097 1.308 2.07 1.278 2.043 0.628 1.011 1.234 2 1.203 1.973 1.174 1.942 0.78 1.305-0.78 1.303-1.174 1.942-1.203 1.972-1.234 2a538.39 538.39 0 0 1-0.628 1.012l-1.278 2.043-1.308 2.07-1.338 2.097-0.68 1.058-1.382 2.136-0.702 1.078-1.427 2.174-1.456 2.199-0.74 1.108c-19.873 29.73-43.354 59.48-70.215 87.162-34.228 35.273-71.437 64.519-111.325 85.78-46.45 24.76-95.235 37.99-146.487 37.99z m-3.325-96.9c77.127 0 139.65-62.523 139.65-139.65 0-77.127-62.523-139.65-139.65-139.65-77.127 0-139.65 62.523-139.65 139.65 0 77.127 62.523 139.65 139.65 139.65z m0-60.8c-43.548 0-78.85-35.302-78.85-78.85 0-43.548 35.302-78.85 78.85-78.85 43.548 0 78.85 35.302 78.85 78.85 0 43.548-35.302 78.85-78.85 78.85z"  horiz-adv-x="1024" />

    
    <glyph glyph-name="suo" unicode="&#59449;" d="M512.097 784.802c89.829 0 169.364-55.16 201.732-137.352 6.638-16.856-1.645-35.902-18.502-42.54-16.687-6.572-35.521 1.48-42.337 17.998l-0.203 0.503c-22.572 57.317-78.04 95.787-140.69 95.787-82.637 0-149.785-66.325-151.12-148.649l-0.02-2.499-0.001-114.358H777.59c53.805 0 97.524-43.181 98.393-96.78l0.013-1.626v-273.482c0-54.348-44.058-98.406-98.406-98.406H246.604c-54.348 0-98.406 44.058-98.406 98.406V355.286c0 54.348 44.058 98.406 98.406 98.406h48.748V568.05c0 119.709 97.04 216.752 216.745 216.752z m265.494-396.714H246.604c-18.116 0-32.802-14.686-32.802-32.802v-273.482c0-18.116 14.686-32.802 32.802-32.802h530.987c18.116 0 32.802 14.686 32.802 32.802V355.286c0 18.116-14.686 32.802-32.802 32.802z"  horiz-adv-x="1024" />

    
    <glyph glyph-name="wenjian" unicode="&#59453;" d="M566.411 816a33.386 33.386 0 0 0 23.568-9.737l0.358-0.362 251.215-258.137A33.362 33.362 0 0 0 851 525.033v-506.33c0-36.471-29.29-66.105-65.645-66.694l-1.103-0.009H237.748c-36.495 0-66.15 29.27-66.74 65.599l-0.008 1.103V749.298c0 36.47 29.29 66.104 65.645 66.693l1.103 0.009h328.663z m-41.466-64H237.748a2.712 2.712 0 0 1-2.703-2.531v-730.767a2.712 2.712 0 0 1 2.532-2.702h546.675a2.712 2.712 0 0 1 2.703 2.531V498.194H556.967c-17.508 0-31.735 14.041-32.018 31.47l-0.004 0.53V752z m213.227-189.806L588.989 715.489v-153.295h149.183z"  horiz-adv-x="1024" />

    
    <glyph glyph-name="zhuye" unicode="&#59455;" d="M492.8 793.6L125.867 518.4A74.665 74.665 0 0 1 96 458.667v-416C96 1.429 129.43-32 170.667-32h188.952l1.235 0.01c40.668 0.66 73.432 33.831 73.432 74.657l-0.001 254.477h155.428v-254.477c0-41.238 33.429-74.667 74.667-74.667h188.953C894.571-32 928 1.429 928 42.667v416a74.667 74.667 0 0 1-29.867 59.733L531.2 793.6a32 32 0 0 1-38.4 0zM164.266 467.2L512 728l347.733-260.8a10.667 10.667 0 0 0 4.267-8.533v-416c0-5.892-4.775-10.667-10.667-10.667H664.38c-5.892 0-10.667 4.775-10.667 10.667V329.143c0 17.674-14.327 32-32 32H402.286c-17.673 0-32-14.326-32-32v-286.476c0-5.892-4.776-10.667-10.667-10.667H170.667c-5.892 0-10.667 4.775-10.667 10.667v416c0 3.357 1.58 6.519 4.266 8.533z"  horiz-adv-x="1024" />

    
    <glyph glyph-name="shezhi2" unicode="&#59500;" d="M337.333 378.333c77.406 0 141.974-54.967 156.8-127.998l440.534-0.002c17.673 0 32-14.327 32-32 0-17.496-14.042-31.713-31.471-31.995l-0.53-0.005-440.534-0.001C479.307 113.3 414.74 58.333 337.333 58.333S195.36 113.301 180.534 186.332l-99.2 0.001c-17.674 0-32 14.327-32 32 0 17.497 14.041 31.713 31.47 31.996l0.53 0.004 99.2 0.002c14.825 73.03 79.393 127.998 156.8 127.998z m0-64c-53.019 0-96-42.98-96-96 0-53.019 42.981-96 96-96 53.02 0 96 42.981 96 96 0 53.02-42.98 96-96 96z m341.334 405.334c77.406 0 141.974-54.968 156.799-127.999l99.2-0.001c17.674 0 32-14.327 32-32 0-17.497-14.041-31.713-31.47-31.996l-0.53-0.004-99.2-0.003c-14.826-73.03-79.394-127.997-156.8-127.997-77.405 0-141.973 54.967-156.798 127.997l-440.535 0.003c-17.673 0-32 14.327-32 32 0 17.496 14.042 31.713 31.471 31.995l0.53 0.005 440.534 0.001c14.825 73.031 79.393 127.999 156.799 127.999z m0-64c-53.02 0-96-42.981-96-96 0-53.02 42.98-96 96-96 53.019 0 96 42.98 96 96 0 53.019-42.981 96-96 96z"  horiz-adv-x="1024" />

    
    <glyph glyph-name="xiazai" unicode="&#59503;" d="M878 326c18.59 0 33.695-14.92 34-33.438v-216.288c0-50.488-40.648-91.448-91.024-92.262l-1.53-0.012H204.554c-50.568 0-91.723 40.454-92.54 90.747l-0.013 1.527V292c0 18.778 15.222 34 34 34 18.59 0 33.695-14.92 33.995-33.438L180 292v-240h664V292c0 18.778 15.222 34 34 34zM514 783c17.673 0 32-14.327 32-32v-460.752l108.704 108.785 0.4 0.394c13.303 12.887 34.533 12.764 47.683-0.377l0.395-0.4c12.887-13.302 12.763-34.533-0.377-47.683L542.43 190.476l-0.177-0.2c-0.145-0.16-0.267-0.282-0.4-0.408l-0.29-0.268c-16.416-16.405-43.034-16.388-59.424 0.058l-161.19 161.31-0.395 0.4c-12.877 13.312-12.738 34.542 0.412 47.682l0.401 0.395c13.312 12.877 34.542 12.738 47.682-0.412L478 290V751c0 17.673 14.327 32 32 32z"  horiz-adv-x="1024" />

    
    <glyph glyph-name="dianhua" unicode="&#59509;" d="M198.61 784c-34.812 0-62.03-17.275-76.222-47.735-11.61-24.92-14.037-57.338-8.67-95.569 10.013-71.332 47.329-162.418 103.705-251.988 61.759-98.12 142.333-188.627 233.827-258.542 105.198-80.388 221.335-131.295 343.757-145.53 55.61-6.462 103.2 37.104 107.457 93.797l8.232 109.788c3.843 51.288-29.095 98.164-78.354 110.797l-128.236 32.885-0.81 0.204c-26.734 6.62-54.95 2.205-78.485-12.281l-46.367-28.534-0.171 0.128c-31.973 24.091-65.223 55.221-97.941 90.798l-2.149 2.344-2.403 2.64-2.392 2.645-1.192 1.325-2.374 2.653-2.361 2.657-1.175 1.329-2.34 2.658c-0.776 0.886-1.551 1.773-2.323 2.659l-2.307 2.657-2.289 2.654-2.27 2.65c-0.377 0.44-0.753 0.882-1.128 1.323l-2.241 2.64-1.113 1.318-2.21 2.63-2.186 2.62-1.085 1.305-2.151 2.603c-0.713 0.865-1.422 1.728-2.127 2.59l-2.1 2.575-2.075 2.56-2.046 2.542-1.013 1.265-2.003 2.515-1.973 2.494-1.942 2.473-1.91 2.45-1.877 2.425-1.844 2.4-0.908 1.19-1.79 2.358-1.395 1.85 38.755 59.627c19.046 29.303 22.574 66.301 9.447 98.771l-39.597 97.957c-15.508 38.365-51.65 64.083-92.56 65.563l-133.918 4.846c-0.386 0.021-0.772 0.021-1.158 0.021z m-0.88-64.002h0.359l133.281-4.823c15.505-0.56 29.427-10.467 35.54-25.59l39.597-97.958c5.306-13.123 3.873-28.144-3.773-39.907l-50.733-78.06a32 32 0 0 1 0.571-35.724l1.229-1.757 1.255-1.78 1.282-1.803 1.308-1.826 1.335-1.848 1.359-1.869 1.384-1.89 1.409-1.91 1.432-1.929 1.456-1.948 1.48-1.966 1.5-1.983 1.525-2 1.545-2.017 1.566-2.032 0.791-1.021 1.598-2.054 1.617-2.068 2.463-3.127 1.666-2.1 1.684-2.112 1.702-2.122 1.72-2.134 1.736-2.143 2.636-3.23 1.778-2.165 1.792-2.172 1.808-2.18 1.823-2.184 1.836-2.191 1.85-2.196 1.864-2.2 1.876-2.204 1.888-2.206 1.9-2.21 1.912-2.21 1.923-2.212 1.933-2.213 1.943-2.212 0.975-1.106 1.957-2.21 1.966-2.21 2.964-3.309 1.987-2.202 1.993-2.198 2-2.193 2.007-2.188 1.34-1.455 2.683-2.897 1.343-1.441 2.688-2.87c0.896-0.954 1.793-1.904 2.69-2.852l2.694-2.833c0.898-0.94 1.796-1.879 2.695-2.814l2.698-2.795a984.2 984.2 0 0 1 6.754-6.902l2.705-2.727 2.707-2.706c31.59-31.455 63.507-58.75 94.793-80.144a32 32 0 0 1 34.835-0.837l64.506 39.7c9.014 5.547 19.723 7.182 29.857 4.585l128.23-32.883c18.951-4.86 31.978-23.4 30.433-44.02l-8.232-109.783c-1.639-21.824-18.323-37.097-36.247-35.014-110.28 12.823-215.794 59.073-312.289 132.81-85.202 65.108-160.69 149.902-218.521 241.782-51.908 82.469-85.868 165.366-94.492 226.793l-0.233 1.702-0.218 1.684-0.205 1.666-0.097 0.827-0.184 1.64-0.17 1.623-0.156 1.605-0.142 1.587-0.13 1.569-0.114 1.55-0.102 1.533-0.088 1.514-0.04 0.75-0.067 1.486c-0.02 0.492-0.04 0.98-0.055 1.467l-0.042 1.448-0.029 1.43c-0.066 4.259 0.043 8.26 0.32 11.986l0.098 1.232c0.035 0.408 0.071 0.812 0.11 1.212l0.123 1.191c0.837 7.676 2.443 14.041 4.725 18.94 3.557 7.633 7.96 10.588 17.331 10.763z"  horiz-adv-x="1024" />

    
    <glyph glyph-name="biaoqian" unicode="&#59511;" d="M528.419 792a32 32 0 0 0 22.627-9.373l336.36-336.36c43.46-43.454 43.46-113.916 0.001-157.375l-280.3-280.3c-43.458-43.458-113.92-43.458-157.373 0L113.373 344.955A32 32 0 0 0 104 367.58V760c0 17.673 14.327 32 32 32z m-13.255-64H168v-347.164l326.99-326.99c18.276-18.278 47.8-18.461 66.305-0.547l0.558 0.549 280.3 280.3c18.464 18.464 18.464 48.401 0 66.863L515.163 728zM325.361 615.887l0.378-0.37 0.673-0.674c12.496-12.497 12.496-32.758 0-45.255-12.372-12.371-32.354-12.495-44.878-0.37l-0.377 0.37-0.673 0.673c-12.497 12.497-12.497 32.759 0 45.255 12.372 12.372 32.353 12.496 44.877 0.371z"  horiz-adv-x="1024" />

    
    <glyph glyph-name="shanchuyonghu" unicode="&#59525;" d="M524.69 802c136.51 0 247.175-110.664 247.175-247.176 0-88.074-46.065-165.39-115.417-209.168 35.142-14.825 67.547-34.888 96.237-59.207a211.132 211.132 0 0 1-79.14-26.134c-46.964 29.498-102.517 46.551-162.045 46.551-167.025 0-302.761-134.259-305.46-300.928l-0.04-5.06c0-18.778-15.222-34-34-34s-34 15.222-34 34c0 161.375 102.08 298.89 245.123 351.312-63.854 44.68-105.61 118.781-105.61 202.634C277.514 691.336 388.179 802 524.69 802zM851 144c19.882 0 36-16.118 36-36s-16.118-36-36-36H667c-19.882 0-36 16.118-36 36s16.118 36 36 36h184zM524.69 734c-98.957 0-179.176-80.22-179.176-179.176 0-98.955 80.22-179.175 179.175-179.175 98.956 0 179.176 80.22 179.176 179.175 0 98.956-80.22 179.176-179.176 179.176z"  horiz-adv-x="1024" />

    
    <glyph glyph-name="tianjiayonghu" unicode="&#59526;" d="M524.69 802c136.51 0 247.175-110.664 247.175-247.176 0-88.074-46.065-165.39-115.417-209.168 35.142-14.825 67.547-34.888 96.237-59.207a211.132 211.132 0 0 1-79.14-26.134c-46.964 29.498-102.517 46.551-162.045 46.551-167.025 0-302.761-134.259-305.46-300.928l-0.04-5.06c0-18.778-15.222-34-34-34s-34 15.222-34 34c0 161.375 102.08 298.89 245.123 351.312-63.854 44.68-105.61 118.781-105.61 202.634C277.514 691.336 388.179 802 524.69 802zM759 236c19.882 0 36-16.118 36-36v-55.999l56-0.001c19.882 0 36-16.118 36-36s-16.118-36-36-36h-56v-56c0-19.882-16.118-36-36-36s-36 16.118-36 36v56h-56c-19.882 0-36 16.118-36 36s16.118 36 36 36h56v56c0 19.882 16.118 36 36 36zM524.69 734c-98.957 0-179.176-80.22-179.176-179.176 0-98.955 80.22-179.175 179.175-179.175 98.956 0 179.176 80.22 179.176 179.175 0 98.956-80.22 179.176-179.176 179.176z"  horiz-adv-x="1024" />

    
    <glyph glyph-name="yonghuqunzu" unicode="&#59527;" d="M623.5 639.122c104.106 0 188.5-84.394 188.5-188.5 0-74.668-43.415-139.197-106.38-169.719C821.53 241.815 905 131.742 905 2.123c0-18.778-15.222-34-34-34-18.59 0-33.695 14.919-33.995 33.437l-0.005 0.562c0 124.86-100.556 226-224.5 226-122.704 0-222.487-99.127-224.47-222.261l-0.03-3.739c0-18.777-15.222-34-34-34s-34 15.223-34 34c0 134.688 90.126 248.271 213.121 283.046C474.649 317.17 435 379.266 435 450.622c0 104.106 84.394 188.5 188.5 188.5z m-211 159c66.226 0 124.167-35.47 155.864-88.447a286.793 286.793 0 0 1-63.006-27.775c-20.536 29.166-54.471 48.222-92.858 48.222-62.684 0-113.5-50.815-113.5-113.5 0-49.195 31.299-91.08 75.07-106.829-6.568-24.108-10.07-49.481-10.07-75.67 0-12.244 0.765-24.309 2.25-36.15-100.078-17.31-176.524-104.145-178.221-209.278l-0.029-3.573c0-18.777-15.222-34-34-34s-34 15.223-34 34c0 129.408 86.26 238.634 204.261 272.864-55.631 31-93.261 90.423-93.261 158.636 0 100.24 81.26 181.5 181.5 181.5z m211-227c-66.55 0-120.5-53.95-120.5-120.5s53.95-120.5 120.5-120.5 120.5 53.95 120.5 120.5-53.95 120.5-120.5 120.5z"  horiz-adv-x="1024" />

    
    <glyph glyph-name="tuichu" unicode="&#59532;" d="M835.486 656.126c12.115-14.347 10.305-35.798-4.042-47.913-14.204-11.994-35.37-10.34-47.547 3.615l-0.366 0.427C687.753 725.682 531.324 767.207 391.9 716.216c-139.425-50.991-232.153-183.64-232.153-332.096 0-148.456 92.728-281.105 232.152-332.096 138.03-50.481 292.726-10.287 388.74 100.58l2.89 3.381c12.116 14.347 33.567 16.157 47.914 4.042 14.347-12.115 16.157-33.566 4.042-47.913-114.196-135.24-300.707-184.75-466.942-123.953C202.308 48.958 91.748 207.116 91.748 384.12s110.56 335.162 276.796 395.959c166.235 60.797 352.746 11.286 466.942-123.953zM802 496c0 6.7 7.7 10.5 13 6.3l141.9-112c4.1-3.2 4.1-9.4 0-12.6L815 265.7c-5.2-4.2-13-0.4-13 6.3v76H488c-4.4 0-8 3.6-8 8v56c0 4.4 3.6 8 8 8h314z"  horiz-adv-x="1024" />

    
    <glyph glyph-name="xiaoxi" unicode="&#59536;" d="M464 384c0-26.51 21.49-48 48-48s48 21.49 48 48-21.49 48-48 48-48-21.49-48-48z m200 0c0-26.51 21.49-48 48-48s48 21.49 48 48-21.49 48-48 48-48-21.49-48-48z m-400 0c0-26.51 21.49-48 48-48s48 21.49 48 48-21.49 48-48 48-48-21.49-48-48z m661.2 173.6c-22.6 53.7-55 101.9-96.3 143.3-41.3 41.3-89.5 73.8-143.3 96.3C630.6 820.3 572.2 832 512 832h-2c-60.6-0.3-119.3-12.3-174.5-35.9-53.3-22.8-101.1-55.2-142-96.5-40.9-41.3-73-89.3-95.2-142.8-23-55.4-34.6-114.3-34.306-174.9C64.3 312.5 80.9 243.6 112 182v-152c0-25.4 20.6-46 46-46h152.1c61.6-31.1 130.5-47.7 199.9-48h2.1c59.9 0 118 11.6 172.7 34.3 53.5 22.3 101.6 54.3 142.8 95.2 41.3 40.9 73.8 88.7 96.5 142 23.6 55.2 35.6 113.9 35.906 174.5 0.294 60.9-11.506 120-34.806 175.6z m-151.1-438C704 50.2 611 12 512 12h-1.7c-60.3 0.3-120.2 15.3-173.1 43.5l-8.4 4.5H188V200.8l-4.5 8.4c-28.2 52.9-43.2 112.8-43.503 173.1C139.6 482 177.7 575.6 247.6 646.1c69.8 70.5 163.1 109.5 262.8 109.9h1.7c50 0 98.5-9.7 144.2-28.9 44.6-18.7 84.6-45.6 119-80 34.3-34.3 61.3-74.4 80-119 19.4-46.2 29.1-95.2 28.903-145.8C883.6 282.7 844.5 189.4 774.1 119.6z"  horiz-adv-x="1024" />

    
    <glyph glyph-name="jiangbei" unicode="&#59537;" d="M256-16a7.927 7.927 0 0 0-3.395 0.76C236.27-11.83 224 2.653 224 20c0 19.882 16.118 36 36 36h15.592c1.44 0.198 2.912 0.3 4.408 0.3h196V161.5C359 174.3 265.7 265.8 250.2 382 172 394.4 112 462.3 112 544V692c0 24.3 19.7 44 44 44h92v40c0 4.4 3.6 8 8 8h512c4.4 0 8-3.6 8-8v-40h92c24.3 0 44-19.7 44-44v-148c0-81.7-60-149.6-138.2-162C758.3 265.8 665 174.3 548 161.5v-105.2h196c1.496 0 2.967-0.102 4.408-0.3H764c19.882 0 36-16.118 36-36 0-17.348-12.27-31.83-28.605-35.24A7.931 7.931 0 0 0 768-16z m448 728H320v-296c0-49.1 19.1-95.3 53.9-130.1 34.7-34.8 81-53.9 130.1-53.9h16c49.1 0 95.3 19.1 130.1 53.9 34.8 34.7 53.9 81 53.9 130.1V712z m-456-48h-64v-120c0-41 26.9-75.8 64-87.6V664z m592 0h-64v-207.6c37.1 11.8 64 46.6 64 87.6V664z"  horiz-adv-x="1024" />

    
    <glyph glyph-name="qiehuanyonghu" unicode="&#59539;" d="M856 104c17.7 0 32-14.3 32.1-32 0-7.02-2.282-13.85-6.474-19.377l-0.326-0.423-68.5-87.1c-3.016-3.697-7.452-5.975-12.203-6.095l-0.397-0.005h-72.6c-4.4 0-8 3.6-8 8 0 1.594 0.527 3.275 1.5 4.633l0.2 0.267 47.2 60.1H592c-4.317 0-7.864 3.465-7.996 7.752L584 40v56c0 4.317 3.465 7.864 7.752 7.996L592 104h264zM524.69 802c136.51 0 247.175-110.664 247.175-247.176 0-135.07-108.342-244.837-242.864-247.138v-1.313a309.837 309.837 0 0 1-17.501 0.493c-167.025 0-302.761-134.259-305.46-300.928l-0.04-5.06c0-18.778-15.222-34-34-34s-34 15.222-34 34c0 161.375 102.08 298.89 245.123 351.312-63.854 44.68-105.61 118.781-105.61 202.634C277.514 691.336 388.179 802 524.69 802zM744.4 313c4.4 0 8-3.6 8-8a8.108 8.108 0 0 0-1.5-4.633l-0.2-0.267-47.2-60.1H880c4.317 0 7.864-3.465 7.996-7.752L888 232v-56c0-4.317-3.465-7.864-7.752-7.996L880 168H616c-17.7 0-32 14.3-32.1 32 0 7.02 2.282 13.85 6.474 19.377l0.326 0.423 68.5 87.1c3.016 3.697 7.452 5.975 12.203 6.095l0.397 0.005h72.6zM524.69 734c-98.957 0-179.176-80.22-179.176-179.176 0-98.955 80.22-179.175 179.175-179.175 98.956 0 179.176 80.22 179.176 179.175 0 98.956-80.22 179.176-179.176 179.176z"  horiz-adv-x="1024" />

    
    <glyph glyph-name="xiaoxi1" unicode="&#59541;" d="M573 475c-23.1 0-41-17.9-41-40s17.9-40 41-40c21.1 0 39 17.9 39 40s-17.9 40-39 40z m-280 0c-23.1 0-41-17.9-41-40s17.9-40 41-40c21.1 0 39 17.9 39 40s-17.9 40-39 40z m601 76c-48.1 66-115.3 110.1-189 130v-0.1c-17.1 19-36.4 36.5-58 52.1-163.7 119-393.5 82.7-513-81-96.3-133-92.2-311.9 6-439l0.8-132.6c0-3.2 0.5-6.4 1.5-9.4 5.3-16.9 23.3-26.2 40.1-20.9L309 90c33.5-11.9 68.1-18.7 102.5-20.6l-0.5-0.4c89.1-64.9 205.9-84.4 313-49l127.1-41.4c3.2-1 6.5-1.6 9.9-1.6 17.7 0 32 14.3 32 32V143c88.1 119.6 90.4 284.9 1 408zM323 161l-12 5-99-31-1 104-8 9c-84.6 103.2-90.2 251.9-11 361 96.4 132.2 281.2 161.4 413 66 132.2-96.1 161.5-280.6 66-412-80.1-109.9-223.5-150.5-348-102z m505 17l-8-10 1-104-98 33-12-5c-56-20.8-115.7-22.5-171-7l-0.2 0.1C613.7 107.8 680.7 153.8 729 220c76.4 105.3 88.8 237.6 44.4 350.4l0.6-0.4c23-16.5 44.1-37.1 62-62 72.6-99.6 68.5-235.2-8-330zM433 475c-23.1 0-41-17.9-41-40s17.9-40 41-40c21.1 0 39 17.9 39 40s-17.9 40-39 40z"  horiz-adv-x="1024" />

    
    <glyph glyph-name="tianjia" unicode="&#59571;" d="M512 832c247.424 0 448-200.576 448-448S759.424-64 512-64 64 136.576 64 384 264.576 832 512 832z m0-68c-209.868 0-380-170.132-380-380s170.132-380 380-380 380 170.132 380 380-170.132 380-380 380z m-0.467-133.722c18.59 0.062 33.745-14.806 34.107-33.324l0.006-0.562 0.595-177.651 177.651-0.595c18.778-0.063 33.95-15.336 33.886-34.113-0.062-18.59-15.032-33.645-33.551-33.884l-0.562-0.002-177.906 0.596 0.594-177.908c0.063-18.777-15.108-34.05-33.886-34.113-18.59-0.062-33.745 14.806-34.107 33.324l-0.006 0.562-0.594 177.652-177.652 0.594c-18.778 0.063-33.95 15.336-33.886 34.113 0.062 18.59 15.032 33.645 33.551 33.884l0.562 0.002 177.906-0.594-0.594 177.906c-0.063 18.777 15.108 34.05 33.886 34.113z"  horiz-adv-x="1024" />

    
    <glyph glyph-name="qingchu" unicode="&#59572;" d="M512 814c64.518 0 116.942-51.84 117.984-116.186l0.016-1.953v-149.176h202c34.993 0 63.426-28.117 63.991-63.016l0.009-1.06v-72.085c0-35.034-28.084-63.5-62.942-64.067l-1.058-0.008h-20.625l48.383-306.367c5.465-34.604-17.834-67.113-52.176-73.122l-1.044-0.174c-2.976-0.47-5.98-0.73-8.991-0.778l-1.004-0.008H227.457c-35.346 0-64 28.688-64 64.076 0 3.015 0.213 6.027 0.636 9.012l0.15 0.994 48.381 306.367H192c-34.993 0-63.426 28.116-63.991 63.016l-0.009 1.06v72.084c0 35.034 28.084 63.501 62.942 64.067l1.058 0.009h202V695.861c0 64.594 51.78 117.08 116.049 118.123L512 814z m234.58-467.551H277.42l-49.963-316.373h117.15l28.621 180.913c3.106 19.631 21.538 33.028 41.17 29.922 0.004 0 0.008 0 0.012-0.002 19.64-3.114 33.039-21.556 29.932-41.197l-26.837-169.636h379.038L746.58 346.449zM394 482.61H192v-72.086h640V482.61l-202 0.001v-1.002H394v1.002z m118 267.314c-29.525 0-53.516-23.723-53.993-53.17l-0.007-0.893v-149.176h108V695.861c0 29.264-23.224 53.098-52.226 54.035l-0.881 0.021-0.893 0.007z"  horiz-adv-x="1024" />

    
    <glyph glyph-name="lianjie" unicode="&#59340;" d="M590.49 500.621l0.377-0.37 47.012-47.013c68.603-68.608 69.289-179.415 2.057-248.868l-2.058-2.092-140.675-140.675c-84.92-84.913-222.597-84.913-307.515 0.001-84.068 84.07-84.909 219.847-2.523 304.95l2.522 2.563 18.733 18.735c12.497 12.497 32.758 12.498 45.255 0.002 12.373-12.372 12.497-32.354 0.373-44.878l-0.371-0.377-18.734-18.736c-59.924-59.925-59.924-157.08 0-217.004 59.324-59.322 155.141-59.915 215.198-1.78l1.809 1.78 140.673 140.673c43.861 43.865 44.3 114.711 1.316 159.115l-1.316 1.337-47.01 47.011c-12.497 12.497-12.497 32.758 0 45.255 12.248 12.248 31.954 12.492 44.5 0.731l0.377-0.36z m243.902 205.69c84.07-84.068 84.91-219.847 2.52-304.954l-2.523-2.563-18.734-18.73c-12.499-12.495-32.76-12.493-45.255 0.006-12.37 12.373-12.491 32.355-0.365 44.877l0.37 0.378 18.732 18.726c59.925 59.926 59.925 157.082 0 217.006-59.325 59.325-155.14 59.918-215.195 1.78l-1.81-1.78L431.46 520.383c-43.864-43.864-44.302-114.71-1.316-159.11l1.316-1.338 47.01-47.01c12.498-12.498 12.498-32.759 0-45.256-12.371-12.371-32.353-12.495-44.877-0.37l-0.377 0.37-47.01 47.01c-68.608 68.604-69.294 179.415-2.06 248.867l2.06 2.092 140.673 140.674c84.919 84.917 222.596 84.917 307.514 0z"  horiz-adv-x="1024" />

    
    <glyph glyph-name="boshimao" unicode="&#59343;" d="M486.128 789.795a50.286 50.286 0 0 0 51.744 0L930.51 554.212c17.288-10.373 26.095-29.494 24.158-48.305l-0.001-164.574c0-17.673-14.327-32-32-32-17.497 0-31.713 14.042-31.996 31.471l-0.004 0.53-0.001 99.66-69.333-46.8v-183.772a202.667 202.667 0 0 0-57.69-141.618C698.092 1.697 613.539-32 512-32c-101.538 0-186.091 33.697-251.644 100.805a202.668 202.668 0 0 0-57.683 140.03l-0.006 1.587-0.001 183.771-111.438 75.22c-22.788 15.382-28.96 46.17-14.005 69.12l0.46 0.693a50.286 50.286 0 0 0 15.807 14.986z m271.205-438.802l-217.2-146.61a50.286 50.286 0 0 0-56.266 0l-217.201 146.61v-140.571c0-36.214 14.167-70.99 39.472-96.896C359.323 59.08 427.271 32 512 32c84.728 0 152.677 27.08 205.862 81.526a138.667 138.667 0 0 1 39.467 95.81l0.004 1.086V350.993zM512 730.683L144.882 510.412l367.117-247.804 367.118 247.804L512 730.683z"  horiz-adv-x="1024" />

    
    <glyph glyph-name="jiaoshi" unicode="&#59344;" d="M433 777c128.682 0 233-104.318 233-233 0-83.088-43.49-156.017-108.949-197.267v0.011c79.695-33.428 144.49-95.338 181.65-172.995L887.316 386.68c10.115 14.492 30.063 18.04 44.556 7.926 14.347-10.014 17.968-29.665 8.225-44.12l-0.3-0.436-170.556-244.365a32.089 32.089 0 0 0-4.944-5.579C769.995 74.987 773 48.845 773 22c0-17.673-14.327-32-32-32-17.496 0-31.713 14.042-31.996 31.47L709 22c0 159.058-128.942 288-288 288-157.467 0-285.418-126.376-287.961-283.237L133 22c0-17.673-14.327-32-32-32-17.673 0-32 14.327-32 32 0 151.898 96.214 281.324 231.023 330.66l-0.003-0.01C239.565 394.741 200 464.75 200 544c0 128.682 104.318 233 233 233z m0-64c-93.336 0-169-75.664-169-169s75.664-169 169-169 169 75.664 169 169-75.664 169-169 169z m489-98c17.673 0 32-14.327 32-32 0-17.496-14.042-31.713-31.47-31.996L922 551H802c-17.673 0-32 14.327-32 32 0 17.496 14.042 31.713 31.47 31.996L802 615h120z m0 141c17.673 0 32-14.327 32-32 0-17.496-14.042-31.713-31.47-31.996L922 692H718c-17.673 0-32 14.327-32 32 0 17.496 14.042 31.713 31.47 31.996L718 756h204z"  horiz-adv-x="1024" />

    
    <glyph glyph-name="shezhi" unicode="&#59354;" d="M543.711 815.426l325.712-188.05a64 64 0 0 0 32-55.426v-376.099a64 64 0 0 0-32-55.425L543.71-47.624a64 64 0 0 0-64 0L154 140.426a64 64 0 0 0-32 55.425v376.1a64 64 0 0 0 32 55.425l325.711 188.05a64 64 0 0 0 64 0z m-32-60.044L190 569.642V198.16l321.712-185.74 321.711 185.74V569.64l-321.71 185.74z m0-211.481c88.366 0 160-71.635 160-160 0-88.366-71.634-160-160-160-88.365 0-160 71.634-160 160 0 88.365 71.635 160 160 160z m0-64c-53.019 0-96-42.98-96-96s42.981-96 96-96c53.02 0 96 42.98 96 96s-42.98 96-96 96z"  horiz-adv-x="1024" />

    
    <glyph glyph-name="yonghu" unicode="&#59370;" d="M526 804c139.728 0 253-113.272 253-253 0-91.385-48.452-171.454-121.067-215.92l0.001 0.017C795.361 277.957 892 142.274 892-16c0-17.673-14.327-32-32-32-17.496 0-31.713 14.042-31.996 31.47L828-16c0 164.281-125.157 299.268-285.162 314.558a255.718 255.718 0 0 0-45.717 1.072c-165.372-7.95-297.376-143.428-300.079-310.404L197-16c0-17.673-14.327-32-32-32-17.673 0-32 14.327-32 32 0 164.673 104.612 304.891 250.931 357.639l0.002-0.016C316.979 387.142 273 463.935 273 551c0 139.728 113.272 253 253 253z m0-64c-104.382 0-189-84.618-189-189 0-95.525 70.868-174.499 162.897-187.212 4.186 0.143 8.386 0.212 12.603 0.212 10.322 0 20.547-0.413 30.661-1.222C639.501 371.44 715 452.403 715 551c0 104.382-84.618 189-189 189z"  horiz-adv-x="1024" />

    
    <glyph glyph-name="xing" unicode="&#59371;" d="M470.264 748.261L349.228 571.656l-205.363-60.538a50 50 0 0 1-16.353-8.332l-0.651-0.51c-21.314-16.956-25.157-47.94-8.486-69.608l130.559-169.684-5.886-214.021a50 50 0 0 1 2.871-18.127l0.284-0.777c9.54-25.51 37.82-38.74 63.579-29.58l201.726 71.734 201.726-71.735a50 50 0 0 1 18.127-2.87l0.826 0.029c27.21 1.19 48.532 23.998 47.78 51.326l-5.886 214.02 130.56 169.685a50 50 0 0 1 8.332 16.353l0.227 0.795c7.277 26.246-7.827 53.572-34.05 61.302l-205.363 60.538L552.75 748.26a50 50 0 0 1-12.977 12.978c-22.778 15.61-53.899 9.8-69.51-12.978z m41.244-60.105l109.806-160.222 0.351-0.506a50 50 0 0 1 26.755-19.187l186.31-54.921-118.446-153.944-0.379-0.499a50 50 0 0 1-9.974-31.366l5.34-194.162-183.01 65.077-0.604 0.21a50 50 0 0 1-32.902-0.21L311.744 73.35l5.341 194.162 0.013 0.627a50 50 0 0 1-10.367 31.238L188.284 453.32l186.311 54.92a50 50 0 0 1 27.106 19.694l109.807 160.222z"  horiz-adv-x="1024" />

    
    <glyph glyph-name="qita" unicode="&#59372;" d="M423 784c35.346 0 64-28.654 64-64v-311H176c-35.346 0-64 28.654-64 64V720c0 35.346 28.654 64 64 64h247z m0-64H176v-247h247V720zM423-16c35.346 0 64 28.654 64 64V359H176c-35.346 0-64-28.654-64-64v-247c0-35.346 28.654-64 64-64h247zM176 295h247v-247H176V295zM601-16c-35.346 0-64 28.654-64 64V359h311c35.346 0 64-28.654 64-64v-247c0-35.346-28.654-64-64-64H601z m247 311H601v-247h247V295zM724.5 772.001c-63.057 0-121.327-33.643-152.855-88.253-31.53-54.609-31.53-121.886 0-176.495C603.173 452.643 661.443 419 724.5 419 821.976 419 901 498.024 901 595.5S821.976 772 724.5 772z m0-64C786.63 708.001 837 657.63 837 595.5S786.63 483 724.5 483c-40.193 0-77.334 21.445-97.43 56.253a112.492 112.492 0 0 0 0 112.495c20.096 34.808 57.237 56.253 97.43 56.253z"  horiz-adv-x="1024" />

    
    <glyph glyph-name="xin" unicode="&#59373;" d="M658.047 754C812.807 754 912 629.901 912 462.882c0-129.611-117.283-272.351-348.353-432.742-31.068-21.514-72.226-21.514-103.298 0C229.279 190.53 112 333.27 112 462.882 112 629.901 211.188 754 365.948 754c55.893 0 93.8-19.528 146.05-63.839C564.26 734.46 602.159 754 658.047 754z m-0.21-62c-38.67 0-65.568-14.177-109.149-51.369-2.019-1.723-13.438-11.547-16.742-14.354-11.251-9.524-27.732-9.524-38.983 0-3.304 2.816-14.723 12.631-16.742 14.354C432.64 677.823 405.74 692 367.067 692 249.457 692 174 597.948 174 462.218c0-103.498 105.946-231.95 321.314-380.88a30.188 30.188 0 0 1 34.28 0c215.365 148.92 321.31 277.382 321.31 380.88 0 135.73-75.452 229.782-193.067 229.782z"  horiz-adv-x="1024" />

    
    <glyph glyph-name="mima" unicode="&#59374;" d="M518.252 793c127.822 0 231.653-102.811 233.717-230.385l0.031-3.873V473h77c35.346 0 64-28.654 64-64v-370c0-35.346-28.654-64-64-64H196c-35.346 0-64 28.654-64 64V409c0 35.346 28.654 64 64 64h77v85.742c0 128.065 102.552 232.158 229.882 234.227l3.866 0.031h11.504zM829 409H196v-370h633V409zM513 297c17.673 0 32-14.327 32-32v-82c0-17.673-14.327-32-32-32-17.673 0-32 14.327-32 32v82c0 17.673 14.327 32 32 32z m5.252 432h-11.504c-92.794 0-168.226-74.693-169.725-167.442l-0.023-2.816V473h351v85.742c0 93.108-74.504 168.732-166.942 170.235l-2.806 0.023z"  horiz-adv-x="1024" />

    
    <glyph glyph-name="kaoqin" unicode="&#59383;" d="M694 784c17.673 0 32-14.327 32-32v-31h122c35.346 0 64-28.654 64-64v-609c0-35.346-28.654-64-64-64H176c-35.346 0-64 28.654-64 64V657c0 35.346 28.654 64 64 64h128v31c0 17.673 14.327 32 32 32 17.673 0 32-14.327 32-32v-31h294v31c0 17.673 14.327 32 32 32zM176 475.593V48h672V474H186c-3.492 0-6.854 0.56-10 1.593z m527.177-72.446c13.085-13.15 13.1-34.485 0.03-47.65l-222.892-224.61c-13.053-13.156-34.232-13.186-47.322-0.068L321.044 243c-8.589 8.472-12.002 20.928-8.94 32.63 3.055 11.7 12.118 20.855 23.731 23.976a33.342 33.342 0 0 0 32.464-8.863l88.253-88.428 199.267 200.798c13.064 13.17 34.268 13.185 47.358 0.035zM304 657H176v-120.593A31.971 31.971 0 0 0 186 538h662V657H726v-31c0-17.673-14.327-32-32-32-17.673 0-32 14.327-32 32v31H368v-31c0-17.673-14.327-32-32-32-17.673 0-32 14.327-32 32v31z"  horiz-adv-x="1024" />

    
    <glyph glyph-name="yingyong" unicode="&#59387;" d="M389 357c53.02 0 96-42.98 96-96v-181c0-53.02-42.98-96-96-96H208c-53.02 0-96 42.98-96 96V261c0 53.02 42.98 96 96 96z m427 0c53.02 0 96-42.98 96-96v-181c0-53.02-42.98-96-96-96H635c-53.02 0-96 42.98-96 96V261c0 53.02 42.98 96 96 96z m-395-64H176v-245h245V293z m427 0H603v-245h245V293zM389 784c53.02 0 96-42.98 96-96v-181c0-53.02-42.98-96-96-96H208c-53.02 0-96 42.98-96 96V688c0 53.02 42.98 96 96 96z m427 0c53.02 0 96-42.98 96-96v-181c0-53.02-42.98-96-96-96H635c-53.02 0-96 42.98-96 96V688c0 53.02 42.98 96 96 96z m-395-64H176v-245h245V720z m427 0H603v-245h245V720z"  horiz-adv-x="1024" />

    
    <glyph glyph-name="kebiao" unicode="&#59389;" d="M694 784c17.673 0 32-14.327 32-32v-31h122c35.346 0 64-28.654 64-64v-609c0-35.346-28.654-64-64-64H176c-35.346 0-64 28.654-64 64V657c0 35.346 28.654 64 64 64h128v31c0 17.673 14.327 32 32 32 17.673 0 32-14.327 32-32v-31h294v31c0 17.673 14.327 32 32 32zM176 475.593V48h672V474H186c-3.492 0-6.854 0.56-10 1.593zM360 227c8.837 0 16-7.163 16-16v-48c0-8.837-7.163-16-16-16h-48c-8.837 0-16 7.163-16 16v48c0 8.837 7.163 16 16 16h48z m176 0c8.837 0 16-7.163 16-16v-48c0-8.837-7.163-16-16-16h-48c-8.837 0-16 7.163-16 16v48c0 8.837 7.163 16 16 16h48z m176 0c8.837 0 16-7.163 16-16v-48c0-8.837-7.163-16-16-16h-48c-8.837 0-16 7.163-16 16v48c0 8.837 7.163 16 16 16h48zM360 379c8.837 0 16-7.163 16-16v-48c0-8.837-7.163-16-16-16h-48c-8.837 0-16 7.163-16 16v48c0 8.837 7.163 16 16 16h48z m176 0c8.837 0 16-7.163 16-16v-48c0-8.837-7.163-16-16-16h-48c-8.837 0-16 7.163-16 16v48c0 8.837 7.163 16 16 16h48z m176 0c8.837 0 16-7.163 16-16v-48c0-8.837-7.163-16-16-16h-48c-8.837 0-16 7.163-16 16v48c0 8.837 7.163 16 16 16h48zM304 657H176v-120.593A31.971 31.971 0 0 0 186 538h662V657H726v-31c0-17.673-14.327-32-32-32-17.673 0-32 14.327-32 32v31H368v-31c0-17.673-14.327-32-32-32-17.673 0-32 14.327-32 32v31z"  horiz-adv-x="1024" />

    
    <glyph glyph-name="shezhi1" unicode="&#59395;" d="M443.24 832l140.635-0.212c43.661-0.073 79.034-35.458 79.095-79.125l0.056-22.921a373.293 373.293 0 0 0 76.875-43.178l18.83 10.827c37.845 21.779 86.18 8.831 108.066-28.948l70.488-121.692c20.993-36.245 10.15-82.56-24.74-105.722l-4.312-2.641-18.906-10.905c3.25-30 2.853-60.477-1.398-90.768l13.36-7.742c36.335-20.97 50.025-66.631 31.22-104.132l-2.194-4.093-66.026-114.353c-20.97-36.335-66.631-50.021-104.132-31.215l-4.122 2.218-18.25 10.56a369.504 369.504 0 0 0-73.81-41.195v-31.432c0.053-41.866-32.479-76.55-74.266-79.173l-5.041-0.158-140.637 0.212c-43.654 0.073-79.021 35.44-79.094 79.094l-0.079 37.9a374.485 374.485 0 0 0-61.983 36.758l-33.698-19.384c-37.852-21.773-86.185-8.813-108.067 28.972L90.616 221.226c-21.005 36.243-10.16 82.582 24.748 105.74l4.303 2.641 34.28 19.73c-2.636 25.092-2.769 50.467-0.236 75.794l-38.058 22.003c-36.34 20.963-50.044 66.625-31.238 104.132l2.218 4.092 66.02 114.354c20.975 36.334 66.637 50.02 104.138 31.215l4.093-2.219 33.166-19.143a368.884 368.884 0 0 0 69.86 42.91V752.64c-0.073 41.877 32.465 76.58 74.258 79.203l5.048 0.158h0.023z m-2.877-65l0.082-83.77-47.347-22.271a300.533 300.533 0 0 1-57.046-35.045l-43.778-34.166-80.556 46.524-2.055 1.15L141 520.502l85.686-49.46-5.325-52.978c-2.062-20.576-1.98-41.338 0.188-61.906l5.658-53.338-82.115-47.29 73.277-126.533 81.538 46.88 43.26-31.661a306.3 306.3 0 0 1 50.805-30.156l47.295-22.22 0.165-91.621 146.22-0.219-0.082 87.747 50.812 21.146a302.201 302.201 0 0 1 60.284 33.619l43.23 31.06 65.085-37.573 68.607 118.952-61.956 35.812 7.688 54.96a302.078 302.078 0 0 1 1.157 74.152l-5.771 53.362 66.243 38.233-73.303 126.526-65.915-37.98-43.28 31.555a306.628 306.628 0 0 1-63.005 35.403l-50.698 21.035-0.164 78.77L440.363 767z m161.175-242.251c75.77-43.818 101.744-140.714 58.054-216.557a158.271 158.271 0 0 0-96.154-73.861 158.25 158.25 0 0 0-120.199 15.867c-75.758 43.825-101.72 140.722-58.023 216.559a158.269 158.269 0 0 0 96.141 73.847 158.238 158.238 0 0 0 120.18-15.855zM440.604 434.07c-25.965-44.992-10.527-102.47 34.493-128.472a93.969 93.969 0 0 1 71.292-9.405c24.072 6.446 44.583 22.176 57.012 43.738 24.889 43.13 11.843 98.151-29.782 125.565l-4.709 2.908-4.858 2.6c-44.446 22.307-98.615 6.103-123.448-36.934z"  horiz-adv-x="1024" />

    
    <glyph glyph-name="cengji" unicode="&#59397;" d="M902.68 253l0.059-0.14a69.1 69.1 0 0 0-33.744-88.554L542.08 5.989a69.107 69.107 0 0 0-60.246 0L154.96 164.306l-0.983 0.487c-30.96 15.616-45.404 51.68-34.213 84.149l0.055 0.158 358.145-168.928 34.016-16.469 336.177 162.815-0.157 0.074L902.68 253z m0.015 155.722l0.059-0.14a69.1 69.1 0 0 0-33.744-88.554L542.095 161.711a69.107 69.107 0 0 0-60.246 0L154.976 320.028l-0.983 0.487c-30.96 15.616-45.404 51.68-34.213 84.149l0.055 0.158L477.98 235.894l34.016-16.469L848.173 382.24l-0.157 0.074 54.679 26.408zM543.861 760.689v0.022l326.87-158.293a73.09 73.09 0 0 0 41.234-65.782c0-28.02-16.015-53.573-41.233-65.786L543.86 312.534a73.072 73.072 0 0 0-63.735 0L153.233 470.85C128.016 483.063 112 508.615 112 536.636c0 28.016 16.016 53.569 41.233 65.782l326.893 158.271a73.11 73.11 0 0 0 63.735 0zM512.002 704L177 537.017 512.002 370 847 537.017 512.002 704z"  horiz-adv-x="1024" />

    
    <glyph glyph-name="banji1" unicode="&#59402;" d="M890.022 775C907.683 775 922 760.683 922 743.022c0-17.66-14.317-31.977-31.978-31.977H872v-495.653c0-35.322-28.654-63.955-64-63.955H613.01l86.76-103.324c11.382-13.52 9.623-33.706-3.912-45.07-0.005-0.005-0.01-0.01-0.03 0.002l-3.05-2.557c-13.55-11.333-33.723-9.568-45.099 3.946L524.242 151.437h-25.219L375.587 4.434c-11.263-13.379-31.146-15.242-44.69-4.282l-0.408 0.336-3.05 2.557c-0.02-0.012-0.026-0.007-0.031-0.002-13.4 11.25-15.257 31.146-4.25 44.662l0.338 0.408 86.759 103.324H216c-35.346 0-64 28.633-64 63.955V711.045h-18.022c-17.661 0-31.978 14.317-31.978 31.977C102 760.683 116.317 775 133.978 775h756.044zM808 711.045H216v-495.653h592V711.045zM356 436.237c18.778 0 34-15.211 34-33.976s-15.222-33.976-34-33.976-34 15.211-34 33.976 15.222 33.976 34 33.976z m317.022-1.998c17.661 0 31.978-14.317 31.978-31.978 0-17.66-14.317-31.978-31.978-31.978H471.978c-17.661 0-31.978 14.317-31.978 31.978 0 17.66 14.317 31.978 31.978 31.978h201.044zM353 558.152c18.778 0 34-15.212 34-33.976 0-18.765-15.222-33.977-34-33.977s-34 15.212-34 33.977c0 18.764 15.222 33.976 34 33.976z m320.022-1.999c17.661 0 31.978-14.317 31.978-31.977 0-17.661-14.317-31.978-31.978-31.978H471.978c-17.661 0-31.978 14.317-31.978 31.978 0 17.66 14.317 31.977 31.978 31.977h201.044z"  horiz-adv-x="1024" />

    
    <glyph glyph-name="yuedu" unicode="&#59398;" d="M879.978667 775.872 490.453333 775.872l-232.661333 108.586667c-12.8 5.952-26.304 9.002667-40.170667 9.002667-52.330667 0-94.954667-42.645333-94.954667-95.061333l0-24.256C53.376 763.754667 0 704.021333 0 631.872L0 18.56c0-79.445333 64.618667-144.021333 144.021333-144.021333L512-125.461333l367.978667 0c79.445333 0 144.021333 64.576 144.021333 144.021333L1024 631.872C1024 711.296 959.424 775.893333 879.978667 775.872zM165.397333 798.4c0 32.32 27.136 52.330667 52.224 52.330667 7.573333 0 14.997333-1.685333 22.101333-4.992l250.922667-117.098667 0-774.677333L195.541333 91.648c-18.304 8.618667-30.144 27.136-30.144 47.402667L165.397333 798.4zM42.730667 18.56 42.730667 631.893333c0 48.533333 34.325333 89.088 79.936 98.922667l0-591.786667c0-36.757333 21.482667-70.549333 54.784-86.08l290.816-135.658667L144.021333-82.709333C88.149333-82.709333 42.730667-37.269333 42.730667 18.56zM981.269333 18.56c0-55.850667-45.44-101.290667-101.290667-101.290667L532.970667-82.730667c0.149333 1.066667 0.405333 2.112 0.405333 3.178667L533.376 733.162667l346.602667 0c55.850667 0 101.290667-45.44 101.290667-101.290667L981.269333 18.56z"  horiz-adv-x="1024" />

    
    <glyph glyph-name="caozuorizhi" unicode="&#59053;" d="M448 256h384v64h-384v-64zM448 128h384v64h-384v-64zM448 384h384v64h-384v-64zM320 0h-192v896h640v-192h-64v128h-512v-768h128zM896 640v-704h-512v704h512M960 704h-640v-832h640v832z"  horiz-adv-x="1024" />

    
    <glyph glyph-name="chuangjianv" unicode="&#58905;" d="M992 96.768h-192v-191.808a32 32 0 1 0-64 0v191.808h-192a32 32 0 1 0 0 63.936h192V352.512a32 32 0 0 0 64 0v-191.808h192a32 32 0 1 0 0-63.936zM832 612.864C832 742.528 752.64 832 612.608 832H283.456C143.296 832 63.936 747.712 63.936 612.864v-328.832c0-129.728 86.208-219.264 219.52-219.264h116.48v-63.872H256C114.688 0.896 0 115.328 0 256.576V640.192A255.872 255.872 0 0 0 256 896h384c141.376 0 256-114.56 256-255.808v-143.808h-64v116.48z"  horiz-adv-x="1026" />

    
    <glyph glyph-name="banjiguanli" unicode="&#58897;" d="M427.84 348.48a193.6 193.6 0 1 1-193.6 193.6 193.92 193.92 0 0 1 193.6-193.6z m0 323.52a129.6 129.6 0 1 0-129.6-129.6A129.92 129.92 0 0 0 427.84 672zM822.72-41.28a32 32 0 0 1-45.44 0 32 32 0 0 1-6.72-10.56A32 32 0 0 1 768-64a32 32 0 1 1 64 0 32 32 0 0 1-2.56 12.16 32 32 0 0 1-6.72 10.56zM672-32h-128a32 32 0 0 1 0-64h128a32 32 0 0 1 0 64zM776.96 34.24h2.24a32 32 0 0 1 4.8 3.52l3.84 3.2a32 32 0 0 1 3.84 5.76 20.16 20.16 0 0 1 4.16 10.88 32 32 0 0 1 0 5.76 32 32 0 0 1 0 6.4 30.08 30.08 0 0 1 0 4.8 394.56 394.56 0 0 1-367.36 256A400.64 400.64 0 0 1 32-64a32 32 0 0 1 32-32h352a32 32 0 0 1 0 64H98.56a335.04 335.04 0 0 0 329.28 299.84A330.88 330.88 0 0 0 736 52.48v-2.56a32 32 0 0 1 15.04-14.4h1.6a28.48 28.48 0 0 1 23.04 0zM565.76 771.2a110.08 110.08 0 1 0 123.84-179.84 32 32 0 1 1 28.8-57.28 174.08 174.08 0 1 1-196.16 284.16 32 32 0 1 1 43.52-47.04zM675.2 506.56a32 32 0 0 1-6.4-64 293.44 293.44 0 0 0 256-256H832a32 32 0 0 1 0-64h128a32 32 0 0 1 32 32 359.36 359.36 0 0 1-316.8 352z"  horiz-adv-x="1024" />

    
    <glyph glyph-name="extend" unicode="&#59424;" d="M534.4-9.600000000000023h-44.8l-70.4 70.4 22.4 54.4c32 0 57.6 25.6 57.6 57.6s-25.6 57.6-57.6 57.6-57.6-25.6-57.6-57.6l-54.4-22.4-195.2 195.2v44.8l128 128 54.4-19.2c3.2-28.8 28.8-48 57.6-48 32 0 57.6 25.6 57.6 57.6 0 28.8-22.4 54.4-48 57.6l-19.2 54.4 128 128h44.8l32-32c19.2 38.4 60.8 64 108.8 64 67.2 0 121.6-54.4 121.6-121.6 0-48-25.6-86.4-64-108.8l156.8-156.8v-44.8L800 256c32-22.4 54.4-60.8 54.4-102.4 0-67.2-54.4-121.6-121.6-121.6-41.6 0-80 22.4-102.4 54.4l-96-96z m-32 76.8l9.6-9.6 105.6 105.6 54.4-19.2c3.2-28.8 28.8-51.2 57.6-51.2 32 0 57.6 25.6 57.6 57.6 0 28.8-22.4 54.4-51.2 57.6l-19.2 54.4 105.6 105.6-176 176 25.6 54.4h3.2c32 0 57.6 25.6 57.6 57.6s-25.6 57.6-57.6 57.6-57.6-25.6-57.6-57.6v-3.2l-54.4-25.6L512 678.4 441.6 608c32-22.4 51.2-57.6 51.2-99.2 0-67.2-54.4-121.6-121.6-121.6-41.6 0-76.8 19.2-99.2 51.2l-70.4-70.4 134.4-134.4c22.4 35.2 60.8 60.8 105.6 60.8 67.2 0 121.6-54.4 121.6-121.6 0-44.8-25.6-83.2-60.8-105.6z"  horiz-adv-x="1024" />

    
    <glyph glyph-name="icon--" unicode="&#59246;" d="M806.4 793.6h-563.2c-56.32 0-102.4-46.08-102.4-102.4v-614.4c0-56.32 46.08-102.4 102.4-102.4h563.2c56.32 0 102.4 46.08 102.4 102.4V691.2c0 56.32-46.08 102.4-102.4 102.4z m51.2-716.8c0-28.16-23.04-51.2-51.2-51.2h-563.2c-28.16 0-51.2 23.04-51.2 51.2V588.8h665.6v-512z m0 563.2h-665.6V691.2c0 28.16 23.04 51.2 51.2 51.2h563.2c28.16 0 51.2-23.04 51.2-51.2v-51.2z m-128-512c43.52 0 76.8 33.28 76.8 76.8s-33.28 76.8-76.8 76.8-76.8-33.28-76.8-76.8 33.28-76.8 76.8-76.8z m-25.6 102.4h51.2v-51.2h-51.2v51.2z m25.6 102.4c43.52 0 76.8 33.28 76.8 76.8s-33.28 76.8-76.8 76.8-76.8-33.28-76.8-76.8 33.28-76.8 76.8-76.8z m-25.6 102.4h51.2v-51.2h-51.2v51.2z m-179.2-307.2c43.52 0 76.8 33.28 76.8 76.8s-33.28 76.8-76.8 76.8-76.8-33.28-76.8-76.8 33.28-76.8 76.8-76.8z m-25.6 102.4h51.2v-51.2h-51.2v51.2z m25.6 102.4c43.52 0 76.8 33.28 76.8 76.8s-33.28 76.8-76.8 76.8-76.8-33.28-76.8-76.8 33.28-76.8 76.8-76.8z m-25.6 102.4h51.2v-51.2h-51.2v51.2z m-179.2-307.2c43.52 0 76.8 33.28 76.8 76.8s-33.28 76.8-76.8 76.8-76.8-33.28-76.8-76.8 33.28-76.8 76.8-76.8z m-25.6 102.4h51.2v-51.2h-51.2v51.2z m25.6 102.4c43.52 0 76.8 33.28 76.8 76.8s-33.28 76.8-76.8 76.8-76.8-33.28-76.8-76.8 33.28-76.8 76.8-76.8z m-25.6 102.4h51.2v-51.2h-51.2v51.2z"  horiz-adv-x="1024" />

    
    <glyph glyph-name="icon-test" unicode="&#58904;" d="M873.728 454c-8.284 0-15 6.716-15 15V732.0409999999999c0 24.813-20.187 45-45 45h-237.25c-8.284 0-15 6.716-15 15s6.716 15 15 15h237.25c41.355 0 75-33.645 75-75V469c0-8.284-6.716-15-15-15zM525.471 777.0409999999999h-41.995c-8.284 0-15 6.716-15 15s6.716 15 15 15h41.995c8.284 0 15-6.716 15-15s-6.716-15-15-15zM432.474 777.0409999999999h-38.996c-8.284 0-15 6.716-15 15s6.716 15 15 15h38.996c8.284 0 15-6.716 15-15s-6.716-15-15-15zM813.728-39.041000000000054h-582.07c-41.355 0-75 33.645-75 75V732.0409999999999c0 41.355 33.645 75 75 75h102.819c8.284 0 15-6.716 15-15s-6.716-15-15-15h-102.82c-24.813 0-45-20.187-45-45v-696.082c0-24.813 20.187-45 45-45h582.07c24.813 0 45 20.187 45 45V299c0 8.284 6.716 15 15 15s15-6.716 15-15v-263.041c0.001-41.355-33.644-75-74.999-75zM248 565.123H95.313c-8.284 0-15 6.716-15 15s6.716 15 15 15H248c8.284 0 15-6.716 15-15s-6.716-15-15-15zM248 432.877H95.313c-8.284 0-15 6.716-15 15s6.716 15 15 15H248c8.284 0 15-6.716 15-15s-6.716-15-15-15zM248 300.87699999999995H95.313c-8.284 0-15 6.716-15 15s6.716 15 15 15H248c8.284 0 15-6.716 15-15s-6.716-15-15-15zM248 172.87699999999995H95.313c-8.284 0-15 6.716-15 15s6.716 15 15 15H248c8.284 0 15-6.716 15-15s-6.716-15-15-15zM888.687 284H748.473c-30.327 0-55 24.673-55 55v90c0 30.327 24.673 55 55 55h140.214c30.327 0 55-24.673 55-55v-90c0-30.327-24.673-55-55-55zM748.473 454c-13.785 0-25-11.215-25-25v-90c0-13.785 11.215-25 25-25h140.214c13.785 0 25 11.215 25 25v90c0 13.785-11.215 25-25 25H748.473z"  horiz-adv-x="1024" />

    
    <glyph glyph-name="shetuanhuodong" unicode="&#58911;" d="M369.5 449C290.4 449 226 513.4 226 592.5S290.4 736 369.5 736 513 671.6 513 592.5 448.6 449 369.5 449z m0 253C309.1 702 260 652.9 260 592.5S309.1 483 369.5 483 479 532.1 479 592.5 429.9 702 369.5 702zM369.5 32.2c-97 0-190.5 35.2-263.3 99.1-2.7 2.4-4.6 5.5-5.4 9-4.5 20-6.8 40.5-6.8 61.2 0 73.6 28.7 142.8 80.7 194.8S295.9 477 369.5 477s142.8-28.7 194.8-80.7S645 275.1 645 201.5c0-20.6-2.3-41.2-6.8-61.2-0.8-3.5-2.7-6.7-5.4-9-72.8-63.9-166.3-99.1-263.3-99.1z m-236.7 121c66-56.2 149.8-87 236.7-87 86.9 0 170.7 30.9 236.7 87 3.2 15.8 4.8 32 4.8 48.3 0 64.5-25.1 125.2-70.7 170.8C494.7 417.9 434 443 369.5 443s-125.2-25.1-170.8-70.7S128 266 128 201.5c0-16.3 1.6-32.5 4.8-48.3zM696.5 431C629 431 574 486 574 553.5S629 676 696.5 676 819 621 819 553.5 764 431 696.5 431z m0 211c-48.8 0-88.5-39.7-88.5-88.5s39.7-88.5 88.5-88.5 88.5 39.7 88.5 88.5-39.7 88.5-88.5 88.5zM696.5 83c-17 0-34.1 1.3-50.8 3.8-9.3 1.4-15.7 10.1-14.2 19.4 1.4 9.3 10.1 15.7 19.4 14.2 15-2.3 30.4-3.4 45.7-3.4 71.4 0 140.3 25.3 194.7 71.3 2.5 12.7 3.8 25.8 3.8 38.8C895 336.8 806 426 696.5 426c-33.8 0-67.2-8.7-96.5-25-8.2-4.6-18.6-1.6-23.1 6.6-4.6 8.2-1.6 18.6 6.6 23.1C617.9 449.9 657 460 696.6 460c62.1 0 120.5-24.2 164.4-68.2 43.9-44 68.1-102.4 68.1-164.6 0-17.4-1.9-34.8-5.8-51.7-0.8-3.5-2.7-6.6-5.4-9C856.7 112.6 778 83 696.5 83z"  horiz-adv-x="1024" />

    
    <glyph glyph-name="xitong" unicode="&#58903;" d="M549.77 832h-75.54a32 32 0 0 1-31.38-25.72l-19.52-97.59a32.13 32.13 0 0 0-20.62-23.86Q389.37 680 376.59 674a32.53 32.53 0 0 0-13.78-3.07 31.87 31.87 0 0 0-17.71 5.35l-82.8 55.21a32 32 0 0 1-40.38-4l-53.41-53.41a32 32 0 0 1-4-40.38l55.21-82.81a32.15 32.15 0 0 0 2.28-31.48q-6-12.77-10.82-26.13a32.13 32.13 0 0 0-23.86-20.62l-97.6-19.52A32 32 0 0 1 64 421.77v-75.53a32 32 0 0 1 25.72-31.38l97.59-19.52a32.13 32.13 0 0 0 23.86-20.62Q216 261.37 222 248.59a32.15 32.15 0 0 0-2.28-31.48l-55.21-82.81a32 32 0 0 1 4-40.38l53.41-53.41a32 32 0 0 1 40.38-4l82.81 55.21a31.87 31.87 0 0 0 17.71 5.35 32.52 32.52 0 0 0 13.77-3.07q12.77-6 26.13-10.83a32.13 32.13 0 0 0 20.62-23.86l19.52-97.59A32 32 0 0 1 474.23-64h75.53a32 32 0 0 1 31.38 25.72l19.52 97.59a32.13 32.13 0 0 0 20.62 23.86Q634.63 88 647.41 94a32.53 32.53 0 0 0 13.78 3.07 31.87 31.87 0 0 0 17.71-5.35l82.81-55.21a32 32 0 0 1 40.38 4l53.41 53.41a32 32 0 0 1 4 40.38l-55.21 82.81a32.15 32.15 0 0 0-2.29 31.48q6 12.77 10.82 26.12a32.13 32.13 0 0 0 23.86 20.62l97.59 19.52A32 32 0 0 1 960 346.23v75.54a32 32 0 0 1-25.72 31.38l-97.59 19.52a32.13 32.13 0 0 0-23.86 20.62Q808 506.63 802 519.41a32.15 32.15 0 0 0 2.28 31.48l55.21 82.81a32 32 0 0 1-4 40.38l-53.41 53.41a32 32 0 0 1-40.38 4l-82.81-55.21a31.87 31.87 0 0 0-17.71-5.35 32.52 32.52 0 0 0-13.77 3.07q-12.77 6-26.13 10.83a32.13 32.13 0 0 0-20.62 23.86l-19.51 97.59A32 32 0 0 1 549.77 832zM512 192a192 192 0 1 0 135.76 56.24A190.74 190.74 0 0 0 512 192z"  horiz-adv-x="1024" />

    
    <glyph glyph-name="zuoye" unicode="&#58934;" d="M310.857143 694.857143h475.428571c40.228571 0 73.142857-32.914286 73.142857-73.142857v-552.228572l-87.771428-69.485714H310.857143c-40.228571 0-73.142857 32.914286-73.142857 73.142857v548.571429c0 40.228571 32.914286 73.142857 73.142857 73.142857zM680.228571-54.857143H256c-80.457143 0-146.285714 65.828571-146.285714 146.285714V676.571429c0 80.457143 65.828571 146.285714 146.285714 146.285714h512c80.457143 0 146.285714-65.828571 146.285714-146.285714v-515.657143c0-43.885714-18.285714-87.771429-54.857143-113.371429l-87.771428-69.485714c-25.6-21.942857-58.514286-32.914286-91.428572-32.914286zM256 768C204.8 768 164.571429 727.771429 164.571429 676.571429v-585.142858c0-51.2 40.228571-91.428571 91.428571-91.428571h424.228571c21.942857 0 40.228571 7.314286 58.514286 18.285714l87.771429 69.485715c21.942857 18.285714 32.914286 43.885714 32.914285 73.142857V676.571429c0 51.2-40.228571 91.428571-91.428571 91.428571H256zM694.857143-47.542857c-14.628571 0-29.257143 10.971429-29.257143 29.257143v146.285714c0 36.571429 29.257143 65.828571 65.828571 65.828571h146.285715c14.628571 0 29.257143-10.971429 29.257143-29.257142s-10.971429-29.257143-29.257143-29.257143h-146.285715c-3.657143 0-7.314286-3.657143-7.314285-7.314286v-146.285714c0-14.628571-14.628571-29.257143-29.257143-29.257143zM394.971429 585.142857h91.428571c14.628571 0 29.257143-10.971429 29.257143-29.257143 0-14.628571-10.971429-29.257143-29.257143-29.257143h-91.428571c-18.285714 3.657143-29.257143 14.628571-29.257143 32.914286 0 14.628571 10.971429 25.6 29.257143 25.6zM394.971429 420.571429h237.714285c14.628571 0 29.257143-10.971429 29.257143-29.257143 0-14.628571-10.971429-29.257143-29.257143-29.257143h-237.714285c-14.628571 0-29.257143 10.971429-29.257143 29.257143s10.971429 29.257143 29.257143 29.257143z"  horiz-adv-x="1024" />

    
    <glyph glyph-name="fabu" unicode="&#59167;" d="M945.93 765.241c-7.638 15.276-26.279 21.619-41.684 13.981L92.312 375.973c-15.276-7.638-21.619-26.279-13.981-41.684 1.683-3.365 3.884-6.343 6.473-8.803 3.365-3.237 7.378-5.696 12.169-7.249l273.148-85.828 41.943 52.041-222.919 70.035 611.539 303.957-327.131-395.999a22.868 22.868 0 0 1-2.071-2.848l-37.801-46.991v-194.957c0-17.218 13.852-31.069 31.069-31.069s31.069 13.852 31.069 31.069v175.54l297.097-93.206c3.495-1.036 6.991-1.553 10.485-1.423 15.017-0.388 28.609 10.227 31.457 25.502l113.79 621.507c0.388 2.071 0.517 4.272 0.517 6.343-0.13 4.402-1.036 9.062-3.237 13.333zM779.969 169.107l-240.396 75.472L866.314 640.19l-86.346-471.082z"  horiz-adv-x="1024" />

    
    <glyph glyph-name="cuoti" unicode="&#58894;" d="M146.648619 40.255639a26.820184 26.820184 0 0 0-20.811915 9.846252 508.486938 508.486938 0 0 0-42.51479 59.694329 27.037213 27.037213 0 1 0 46.181433 28.122357 448.141523 448.141523 0 0 1 38.05999-53.400496 27.162861 27.162861 0 0 0-3.540996-38.082834 28.122357 28.122357 0 0 0-17.373722-6.179608z m0 0M511.839469-127.998755a508.030036 508.030036 0 0 0-294.896381 93.550814 26.993807 26.993807 0 0 0 31.092224 44.136794 454.823724 454.823724 0 0 1 263.86127-83.590336c252.381591 0 457.782169 205.503381 457.782169 458.044888s-205.400578 458.044888-457.782169 458.044888-457.656521-205.606184-457.656521-458.113424A456.445729 456.445729 0 0 1 72.641815 255.308285a27.038355 27.038355 0 0 0-51.892717-15.214858 513.204458 513.204458 0 0 0-20.469237 143.924329C0.279861 666.360737 229.804897 896 512.010808 896s511.730947-229.593572 511.730947-511.982244-229.593572-511.993666-511.845173-511.993666z m0 0M769.818118 237.329167a135.174644 135.174644 0 0 0-135.33456-135.391673c-74.886341 0-134.009542 60.471063-134.009542 135.391673s60.436796 135.403095 134.009542 135.403094 135.334559-60.471063 135.33456-135.403094z m0 0M769.818118 237.329167a135.174644 135.174644 0 0 0-135.33456-135.391673c-74.886341 0-134.009542 60.471063-134.009542 135.391673s60.436796 135.403095 134.009542 135.403094 135.334559-60.471063 135.33456-135.403094zM424.76525 104.644642H310.436789a32.531467 32.531467 0 0 0-32.851299 32.862722V630.471036a32.531467 32.531467 0 0 0 32.851299 32.862722h394.181323a32.531467 32.531467 0 0 0 32.851299-32.862722v-148.493355a17.133849 17.133849 0 1 1 34.164894 0v148.493355a65.908205 65.908205 0 0 1-65.702598 65.725443H310.436789c-36.792084 0-65.702598-30.235532-65.702598-65.725443v-492.963672a65.908205 65.908205 0 0 1 65.702598-65.725443H426.056a17.396568 17.396568 0 0 1 17.133849 17.133848c0 9.138053-9.138053 15.774563-18.401754 15.774564zM638.915514 547.646011c0 9.206588-6.567975 17.133849-14.449546 17.133849H390.588933c-7.892993 0-14.460968-7.892993-14.460968-17.133849s6.567975-17.076736 14.460968-17.076736H624.465968c7.88157 1.302172 14.449546 9.195165 14.449546 17.076736zM391.902529 433.283283a17.133849 17.133849 0 0 1 0-34.176317h32.862721a17.133849 17.133849 0 0 1 0 34.176317zM630.702689 392.207736a148.550468 148.550468 0 1 1 148.493355-148.493355 148.561891 148.561891 0 0 1-148.493355 148.493355zM710.192324 195.671069l-47.300845 48.637285 48.580173 47.335113a23.233499 23.233499 0 0 1-32.839877 32.862722l-47.266577-48.637285-47.300845 48.637285a23.233499 23.233499 0 0 1-32.851299-32.862722l47.300844-48.648708-48.61444-47.32369a23.233499 23.233499 0 0 1 32.839877-32.862722l48.625863 48.648708 47.300845-48.648708a22.993625 22.993625 0 0 1 32.839876 0c7.892993 9.206588 7.892993 24.981151-1.313595 32.862722z"  horiz-adv-x="1024" />

    
    <glyph glyph-name="diannao" unicode="&#58910;" d="M868.95177918 680.65321532H274.11312994c-10.26749627 0-19.00277466-3.6151618-26.30943653-10.88910739-7.22487113-7.23032433-10.89456058-15.97650768-10.89456059-26.20583515v-370.75858453c0-10.24023245 3.66968946-18.95370022 10.89456059-26.22764579 7.30666259-7.22487113 16.04194099-10.86184429 26.30943653-10.86184429h594.83864924c10.28385442 0 19.04094415 3.63697315 26.28217344 10.86184429 7.30120941 7.27394558 10.9218244 15.98741334 10.92182439 26.22764579V643.55827278c0 10.2293275-3.62061501 18.97551083-10.92727686 26.20583516-7.23577681 7.27394558-15.99286582 10.8891081-26.27672097 10.88910738M274.09131931 754.78857422h594.83864924c30.77522572 0 57.07375657-10.86729676 78.86287773-32.59643853 21.78912116-21.74004671 32.66187112-47.91861806 32.66187114-78.62841045v-370.76403699c0-30.68798176-10.87274996-56.91562756-32.66187114-78.63386293-21.78912116-21.72914105-48.08765274-32.59643853-78.86287773-32.59643851H608.68737796v-74.15716953h111.5465602c10.26204379 0 19.03003849-3.6151618 26.28217344-10.8891081 7.29030445-7.22487113 10.91091874-15.97650768 10.91091872-26.20583518 0-10.24023245-3.62061501-18.98641651-10.91637192-26.20038195-7.25213496-7.28485125-16.01467717-10.90001305-26.27672024-10.90001379H422.80370787c-10.27840195 0-19.0191328 3.6151618-26.30943728 10.90001379-7.25213496 7.21396618-10.89456058 15.96014952-10.89456056 26.20038195 0 10.23477998 3.6478781 18.97551083 10.89456056 26.20583518 7.29030445 7.27394558 16.03103531 10.8891081 26.30943728 10.8891081h111.53565452v74.15716953H274.09131931c-30.79703633 0-57.09011544 10.86729676-78.86287845 32.59643851C173.43931968 215.88406068999996 162.54475911 242.11170648999996 162.54475911 272.79968825000003V643.55827278C162.54475911 674.27351764 173.43931968 700.45208898 195.22844086 722.19213569 217.00665706 743.92127746 243.29428298 754.78857422 274.09131931 754.78857422"  horiz-adv-x="1129" />

    
    <glyph glyph-name="shixi-A" unicode="&#58906;" d="M814.933333-98.133333l110.933334 42.666666c8.533333 4.266667 12.8 12.8 8.533333 21.333334L678.4 640c-4.266667 8.533333-12.8 12.8-21.333333 8.533333l-166.4-64v21.333334c0 8.533333-8.533333 17.066667-17.066667 17.066666H290.133333v256c0 8.533333-4.266667 17.066667-12.8 17.066667H76.8c-8.533333 0-12.8-8.533333-12.8-17.066667v-981.333333H0v-25.6h1024v29.866667h-209.066667zM652.8 610.133333L896-34.13333299999999l-157.866667-59.733334-243.2 644.266667 157.866667 59.733333z m55.466667-708.266666h-217.6V477.866667l217.6-576zM93.866667 866.133333h170.666666v-964.266666h-170.666666V866.133333z m196.266666-964.266666V593.066667h170.666667v-691.2h-170.666667zM145.066667 806.4h64v-29.866667H145.066667zM145.066667 750.933333h64v-29.866666H145.066667zM145.066667 661.333333h64v-29.866666H145.066667zM145.066667 601.6h64v-29.866667H145.066667zM145.066667 537.6h64v-29.866667H145.066667zM345.6 499.2h64v-29.866667H345.6zM345.6 439.466667h64v-29.866667H345.6zM345.6 375.46666700000003h64v-29.866667H345.6zM585.472 483.114667l59.776 22.826666 10.666667-27.904-59.776-22.826666zM606.592 427.605333l59.776 22.784 10.666667-27.904-59.818667-22.784zM628.224 367.445333l59.818667 22.826667 10.666666-27.861333-59.818666-22.869334zM696.234667 192.85333300000002l59.733333 22.869334 10.709333-27.861334-59.776-22.869333zM717.354667 137.34400000000005l59.776 22.869333 10.666666-27.904-59.733333-22.869333zM738.986667 77.22666700000002l59.776 22.869333 10.666666-27.904-59.776-22.826667zM145.066667 183.46666700000003h64v-29.866667H145.066667zM145.066667 98.133333h64v-29.866666H145.066667zM145.066667 12.799999999999955h64v-29.866667H145.066667z"  horiz-adv-x="1024" />

    
    <glyph glyph-name="gerenxinxi" unicode="&#58921;" d="M870.4 742.4H736v56C736 817 721 832 702.4 832s-33.6-15-33.6-33.6v-56H355.2v56c0 18.6-15 33.6-33.6 33.6S288 817 288 798.4v-56H153.6c-49.5 0-89.6-40.1-89.6-89.6v-627.2c0-49.5 40.1-89.6 89.6-89.6h716.8c49.5 0 89.6 40.1 89.6 89.6V652.8c0 49.5-40.1 89.6-89.6 89.6zM892.8 48c0-24.7-20.1-44.8-44.8-44.8H176c-24.7 0-44.8 20.1-44.8 44.8V630.4c0 24.7 20.1 44.8 44.8 44.8h112v-56c0-18.6 15-33.6 33.6-33.6s33.6 15 33.6 33.6v56h313.6v-56c0-18.6 15-33.6 33.6-33.6s33.6 15 33.6 33.6v56h112c24.7 0 44.8-20.1 44.8-44.8V48zM456.9 253.3c33.3 24.5 55.1 63.8 55.1 108.3 0 74.2-60.2 134.4-134.4 134.4s-134.4-60.2-134.4-134.4c0-44.5 21.7-83.8 55.1-108.3-52.7-26.1-90.6-77.4-98.2-138.1h67.8c10.4 51.1 55.6 89.6 109.7 89.6s99.4-38.5 109.7-89.6h67.8c-7.5 60.7-45.4 112-98.2 138.1z m-79.3 41.1c-37.1 0-67.2 30.1-67.2 67.2s30.1 67.2 67.2 67.2 67.2-30.1 67.2-67.2-30.1-67.2-67.2-67.2z m369.6-44.8H680c-18.6 0-33.6-15-33.6-33.6s15-33.6 33.6-33.6h67.2c18.6 0 33.6 15 33.6 33.6s-15 33.6-33.6 33.6zM792 428.8H635.2c-18.6 0-33.6-15-33.6-33.6s15-33.6 33.6-33.6H792c18.6 0 33.6 15 33.6 33.6s-15 33.6-33.6 33.6z"  horiz-adv-x="1024" />

    
    <glyph glyph-name="tongji" unicode="&#59512;" d="M93.090909-34.909091h930.909091v-93.090909H0V896h93.090909v-930.909091z m93.090909 442.181818h93.090909v-372.363636H186.181818V407.272727z m209.454546 139.636364h93.090909v-512h-93.090909V546.909091z m209.454545-139.636364h93.090909v-372.363636h-93.090909V407.272727z m209.454546 186.181818h93.090909v-558.545454h-93.090909V593.454545z m-555.985455-15.45309l-51.665455 77.451636L442.181818 812.311273l205.381818-136.936728 182.597819 162.327273 61.858909-69.585454-236.311273-210.036364L442.181818 700.416l-183.621818-122.414545z"  horiz-adv-x="1024" />

    
    <glyph glyph-name="banji" unicode="&#58997;" d="M311.466667 11.946667000000048v-0.192H213.333333c-37.704533 0-68.266667 30.5664-68.266666 68.266666V704c0 37.704533 30.562133 68.266667 68.266666 68.266667h559.944534c37.704533 0 68.266667-30.562133 68.266666-68.266667v-161.373867a25.6 25.6 0 0 0-51.1872-0.832h-0.1024V699.648a21.333333 21.333333 0 0 1-21.333333 21.333333H217.693867a21.333333 21.333333 0 0 1-21.333334-21.333333v-615.2704a21.333333 21.333333 0 0 1 21.333334-21.333333h91.4432A25.6 25.6 0 1 0 311.466667 11.946667000000048zM840.533333 38.27200000000005c0-16.6272-6.920533-25.472-23.04-25.472-16.119467 0-25.4592 10.171733-25.4592 25.472 0 102.877867-66.282667 160.6784-169.1008 160.6784-102.818133 0-169.1008-57.800533-169.1008-160.682667 0-13.841067-11.6992-25.467733-25.4592-25.467733-13.76 0-23.04 9.024-23.04 25.472 0 121.582933 96.085333 209.194667 217.6 209.194667s217.6-87.611733 217.6-209.194667zM627.165867 204.79999999999995a136.494933 136.494933 0 0 0-96.516267 233.019733 136.494933 136.494933 0 1 0 193.0368-193.041066 135.6032 135.6032 0 0 0-96.520533-39.978667z m0.034133 230.4c-51.754667 0-93.866667-42.112-93.866667-93.866667s42.112-93.866667 93.866667-93.866666 93.866667 42.112 93.866667 93.866666-42.112 93.866667-93.866667 93.866667z"  horiz-adv-x="1024" />

    
    <glyph glyph-name="baogao" unicode="&#58945;" d="M772.245854 812.081951v-860.16H80.920976V812.081951h691.324878m19.980487 79.921951H60.940488C27.87278 892.003902 0.999024 865.130146 0.999024 832.062439v-900.120976c0-33.067707 26.873756-59.941463 59.941464-59.941463h731.285853c33.067707 0 59.941463 26.873756 59.941464 59.941463V832.062439c0 33.067707-26.873756 59.941463-59.941464 59.941463zM943.079024 674.216585v-722.294634h-90.911219V674.216585h90.911219m19.980488 79.921952H832.187317c-33.067707 0-59.941463-26.873756-59.941463-59.941464v-822.197073h190.813658c33.067707 0 59.941463 26.873756 59.941464 59.941463V694.197073c0 33.067707-26.873756 59.941463-59.941464 59.941464zM357.650732 672.218537v-136.866342H220.78439V672.218537h136.866342m19.980488 79.921951H200.803902c-33.067707 0-59.941463-26.873756-59.941463-59.941464v-176.827317c0-33.067707 26.873756-59.941463 59.941463-59.941463h176.827318c33.067707 0 59.941463 26.873756 59.941463 59.941463V692.199024c0 33.067707-26.873756 59.941463-59.941463 59.941464zM612.401951 673.217561h-98.903414c-22.078439 0-39.960976 17.882537-39.960976 39.960976s17.882537 39.960976 39.960976 39.960975h98.903414c22.078439 0 39.960976-17.882537 39.960976-39.960975s-17.882537-39.960976-39.960976-39.960976zM672.343415 456.429268H513.498537c-22.078439 0-39.960976 17.882537-39.960976 39.960976s17.882537 39.960976 39.960976 39.960976h158.844878c22.078439 0 39.960976-17.882537 39.960975-39.960976s-17.882537-39.960976-39.960975-39.960976zM542.470244 564.823415h-28.971707c-22.078439 0-39.960976 17.882537-39.960976 39.960975s17.882537 39.960976 39.960976 39.960976h28.971707c22.078439 0 39.960976-17.882537 39.960976-39.960976s-17.882537-39.960976-39.960976-39.960975zM208.296585 206.673171c-37.163707 0-67.434146 30.270439-67.434146 67.434146s30.270439 67.434146 67.434146 67.434146 67.434146-30.270439 67.434147-67.434146-30.270439-67.434146-67.434147-67.434146z m0 79.921951c-6.893268 0-12.487805-5.594537-12.487805-12.487805s5.594537-12.487805 12.487805-12.487805 12.487805 5.594537 12.487805 12.487805-5.594537 12.487805-12.487805 12.487805zM208.296585 11.863415c-37.163707 0-67.434146 30.270439-67.434146 67.434146s30.270439 67.434146 67.434146 67.434146 67.434146-30.270439 67.434147-67.434146-30.270439-67.434146-67.434147-67.434146z m0 79.921951c-6.893268 0-12.487805-5.594537-12.487805-12.487805s5.594537-12.487805 12.487805-12.487805 12.487805 5.594537 12.487805 12.487805-5.594537 12.487805-12.487805 12.487805zM671.34439 234.645854H386.622439c-22.078439 0-39.960976 17.882537-39.960976 39.960975s17.882537 39.960976 39.960976 39.960976h284.721951c22.078439 0 39.960976-17.882537 39.960976-39.960976s-17.882537-39.960976-39.960976-39.960975zM671.34439 36.839024H386.622439c-22.078439 0-39.960976 17.882537-39.960976 39.960976s17.882537 39.960976 39.960976 39.960976h284.721951c22.078439 0 39.960976-17.882537 39.960976-39.960976s-17.882537-39.960976-39.960976-39.960976z"  horiz-adv-x="1024" />

    
    <glyph glyph-name="yanjiuzhulu" unicode="&#58914;" d="M502.4-9.6H189.6c-42.4 0-76.8 34.4-76.8 76.8s34.4 76.8 76.8 76.8h217.6c20 0 36.8 16.8 36.8 36.8s-16.8 36.8-36.8 36.8H189.6c-28 0-54.4-8-76.8-21.6V741.6c0 41.6 33.6 75.2 75.2 75.2h447.2c41.6 0 75.2-33.6 75.2-75.2v-295.2c0-20 16.8-36.8 36.8-36.8s36.8 16.8 36.8 36.8V741.6C784 824 716.8 890.4 634.4 890.4H188C106.4 890.4 39.2 824 39.2 741.6v-674.4c0-82.4 67.2-150.4 150.4-150.4h313.6c20 0 36.8 16.8 36 36.8 0 20-16.8 36.8-36.8 36.8zM716.8 345.6c-108 0-196-88-196-196s88-196 196-196 196 88 196 196-88 196-196 196z m0-317.6c-67.2 0-121.6 54.4-121.6 121.6 0 67.2 54.4 121.6 121.6 121.6 67.2 0 121.6-54.4 121.6-121.6 0-67.2-54.4-121.6-121.6-121.6zM186.4 104c-20 0-36.8-16.8-36.8-36.8s16.8-36.8 36.8-36.8h243.2c20 0 36.8 16.8 36.8 36.8S449.6 104 429.6 104H186.4zM948-122.4c-9.6 0-18.4 3.2-25.6 10.4l-118.4 114.4c-14.4 14.4-15.2 37.6-0.8 52s37.6 15.2 52 0.8l118.4-114.4c14.4-14.4 15.2-37.6 0.8-52-7.2-8-16.8-11.2-26.4-11.2z"  horiz-adv-x="1024" />

    
    <glyph glyph-name="xuexiaoguanli" unicode="&#58916;" d="M991.2-127H37c-17.7 0-32 14.3-32 32s14.3 32 32 32h954.1c17.7 0 32-14.3 32-32s-14.3-32-31.9-32zM991.2 381.9H37c-17.7 0-32 14.3-32 32s14.3 32 32 32h954.1c17.7 0 32-14.3 32-32s-14.3-32-31.9-32zM165 1.3999999999999773c-17.7 0-32 14.3-32 32V286c0 17.7 14.3 32 32 32s32-14.3 32-32v-252.7c0-17.6-14.3-31.9-32-31.9zM510.5 1.3999999999999773c-17.7 0-32 14.3-32 32V286c0 17.7 14.3 32 32 32s32-14.3 32-32v-252.7c0-17.6-14.3-31.9-32-31.9zM863.6 1.3999999999999773c-17.7 0-32 14.3-32 32V286c0 17.7 14.3 32 32 32s32-14.3 32-32v-252.7c0-17.6-14.4-31.9-32-31.9zM928 513.3c-17.7 0-32 14.3-32 32 0 73.8-38.7 143.8-109 197.1-72.9 55.3-170.4 85.7-274.4 85.7-104 0-201.5-30.4-274.4-85.7-70.3-53.3-109-123.3-109-197.1 0-17.7-14.3-32-32-32s-32 14.3-32 32c0 48 12.3 94.5 36.7 138.1 23.1 41.4 55.9 78.4 97.6 110C283.5 857 394.7 892.1 512.6 892.1S741.7 857 825.7 793.4c41.7-31.6 74.5-68.6 97.6-110 24.4-43.6 36.7-90.1 36.7-138.1 0-17.7-14.3-32-32-32z"  horiz-adv-x="1024" />

    
    <glyph glyph-name="tiku" unicode="&#59040;" d="M204.8 256.3456V256c-28.2752 0-51.2-22.9248-51.2-51.182933L153.642667 136.533333c0-28.2752 22.920533-51.2 51.2-51.2H848.469333c-13.76 26.986667-20.740267 55.509333-20.740266 85.333334 0 29.7472 6.941867 58.1376 20.6336 84.949333L597.333333 255.765333V256h-0.042666a25.6 25.6 0 1 0 0.042666 51.2h251.140267c-13.76 26.986667-20.740267 55.509333-20.740267 85.333333 0 29.7472 6.941867 58.1376 20.6336 84.949334L597.333333 477.632V477.866667h-0.042666a25.6 25.6 0 1 0 0.042666 51.2h251.1232C834.705067 556.0576 827.733333 584.576 827.733333 614.4c0 29.7472 6.9376 58.1376 20.616534 84.949333L204.7872 699.733333h-0.029867c-28.2752 0-51.2-22.9248-51.2-51.182933L153.6 580.266667c0-28.2752 22.9248-51.2 51.2-51.2v-0.3456a25.6 25.6 0 1 0 0-50.504534V477.866667c-28.2752 0-51.2-22.9248-51.2-51.182934L153.642667 358.4c0-28.2624 22.8992-51.178667 51.157333-51.2v-0.3456a25.6 25.6 0 1 0 0-50.504533z m716.885333 25.045333c0.081067-5.700267-1.770667-11.562667-5.998933-16.618666C890.948267 235.1616 878.933333 204.074667 878.933333 170.666667c0-33.429333 12.036267-64.695467 36.821334-94.596267 13.824-16.686933 1.962667-41.937067-19.712-41.937067h-691.2c-56.554667 0-102.4 45.845333-102.4 102.382934L102.4 204.8c0 30.592 13.4144 58.052267 34.688 76.817067-21.248 18.760533-34.645333 46.203733-34.645333 76.765866L102.4 426.666667c0 30.583467 13.405867 58.0352 34.666667 76.8C115.805867 522.2272 102.4 549.674667 102.4 580.2496L102.357333 648.533333c0 56.554667 45.845333 102.4 102.4 102.4h0.059734l691.2-0.413866c21.704533-0.0128 33.544533-25.339733 19.6352-42.005334C890.939733 678.903467 878.933333 647.808 878.933333 614.4c0-33.4336 12.027733-64.704 36.7872-94.609067a25.224533 25.224533 0 0 0 5.9008-14.984533c0.4608-6.186667-1.322667-12.650667-5.930666-18.167467C890.944 457.028267 878.933333 425.941333 878.933333 392.533333c0-33.429333 12.036267-64.695467 36.821334-94.596266 4.177067-5.0432 6.007467-10.8672 5.930666-16.541867z m-585.813333-73.787733c-17.450667-15.837867-44.433067-14.528-60.266667 2.922667a42.666667 42.666667 0 0 0-11.072 28.672V546.133333c0 23.5648 19.101867 42.666667 42.666667 42.666667h187.733333c23.5648 0 42.666667-19.101867 42.666667-42.666667v-306.935466c0-23.5648-19.101867-42.666667-42.666667-42.666667a42.666667 42.666667 0 0 0-28.672 11.072L401.066667 266.760533l-65.194667-59.157333zM315.733333 537.6v-279.133867l56.661334 51.413334a42.666667 42.666667 0 0 0 57.344 0l56.661333-51.413334V537.6H315.733333z"  horiz-adv-x="1024" />

    
    <glyph glyph-name="shenghuo" unicode="&#59032;" d="M750.933333 486.4a136.533333 136.533333 0 1 0 0-273.066667 170.666667 170.666667 0 0 0-170.666666-170.666666h-238.933334a170.666667 170.666667 0 0 0-170.666666 170.666666v307.2a34.133333 34.133333 0 0 0 34.133333 34.133334h512a34.133333 34.133333 0 0 0 34.133333-34.133334v-34.133333z m0-68.266667v-136.533333a68.266667 68.266667 0 1 1 0 136.533333zM238.933333 486.4v-273.066667a102.4 102.4 0 0 1 102.4-102.4h238.933334a102.4 102.4 0 0 1 102.4 102.4v273.066667H238.933333z m102.4 238.933333h68.266667v-136.533333h-68.266667V725.333333z m170.666667 0h68.266667v-136.533333h-68.266667V725.333333z"  horiz-adv-x="1024" />

    
    <glyph glyph-name="xuesheng" unicode="&#58937;" d="M1119.223717 422.032149l-21.390528 24.533103a23.727014 23.727014 0 0 0-5.841215 15.584361V631.416335c27.967736 17.36009 72.045543 31.624337-28.306527 74.954468C948.695293 753.345852 746.647673 831.770002 644.870346 873.324404c-0.490662 0.198601-8.913694 3.901931-9.345943 4.088851-76.204488 31.799573-109.698014 18.201225-171.357877-6.495431-104.557745-39.206234-278.041824-110.983081-397.377842-155.902023-91.578565-33.960823-86.017729-59.346742-1.448622-99.382428 126.602489-60.000958 369.491883-152.175328 423.196012-172.152283s92.454748-20.105461 146.591126 4.030438c51.636339 23.014386 137.32696 52.173731 354.398184 141.07702a23.727014 23.727014 0 0 0 32.710803-21.951285v-102.992299a23.727014 23.727014 0 0 0-6.063181-15.841375l-23.750379-26.58921a23.727014 23.727014 0 0 1 1.343479-33.061275l43.049753-40.72495a23.727014 23.727014 0 0 1 31.857985-0.712628l48.201705 41.788051a23.727014 23.727014 0 0 1 2.348168 33.528572zM941.019936 401.108918c-93.961781-36.367403-235.400956-91.321552-293.485996-111.999452-79.604075-28.329892-101.508631-18.072719-166.22929 1.460303-89.475728 27.009777-220.318939 82.302716-296.406603 108.728373a23.212988 23.212988 0 0 1-30.806567-21.939603v-369.281599a23.212988 23.212988 0 0 1 11.098308-19.860131c42.757692-26.180325 204.594389-116.216809 408.09063-116.216809 188.916569 0 346.535909 89.954708 388.417419 116.193445a23.212988 23.212988 0 0 1 10.911389 19.684893v371.501261a23.212988 23.212988 0 0 1-31.58929 21.729319z"  horiz-adv-x="1126" />

    
    <glyph glyph-name="ketang" unicode="&#59006;" d="M1059.867862 552.131236c-4.370002 5.959094-9.799399 11.38849-15.758493 15.758492L605.387643 880.940787c-26.087588 19.466373-61.312454 20.128495-87.267617 1.589092L83.635878 585.767009c-17.347584-11.918188-28.736074-30.325166-32.57638-50.983357-3.840305-20.658192 0.529697-41.713656 12.977582-59.061241 4.899699-7.548185 11.918188-14.036976 19.466373-19.466373l478.978715-321.658639 346.024712 232.669505v-192.54494c-5.959094-14.699098-18.406979-26.087588-34.165471-31.516985l-4.370002-1.589092-275.972254-200.755248c-9.799399-7.018488-21.717586-10.858793-33.106076-10.858793-11.38849 0-22.247283 3.310608-32.046682 9.799399L200.169267 163.86317c-15.758492 11.38849-24.89577 29.265772-24.895769 48.334872v14.699098c0 4.899699 2.118789 9.269701 7.018488 11.918188 4.370002 2.648486 8.740004 2.118789 12.447884 0l350.924411-239.158297c12.977582-9.269701 30.854863-5.429397 40.124565 7.548185s5.429397 30.854863-7.548185 40.124565L226.786553 286.355653c-22.247283 14.699098-50.453661 15.758492-73.230642 2.648487C130.249233 276.158982 116.079833 251.660485 116.60953 225.175624v-12.977582c0-38.005776 18.406979-73.760338 49.394266-95.477925l330.266219-224.591622c19.466373-12.977582 41.713656-20.128495 64.490637-20.128495 23.836375 0 46.613356 7.548185 66.74185 20.658192l269.615887 196.385246c32.046682 12.447885 56.942452 38.535473 67.271548 70.44973l1.589092 4.370002V404.080861l76.541248 50.453661 0.529698 0.529697c15.228795 10.329096 25.557891 26.087588 28.736074 44.494567 3.310608 18.406979-1.059394 37.476079-11.918187 52.57245z m-45.024264-42.243354c-0.529697-1.589092-1.589092-4.370002-4.370003-6.488791l-83.030039-54.823663c-2.118789-0.529697-4.370002-1.589092-6.488791-3.310607L562.482168 204.517432 116.60953 503.399091c-2.118789 1.589092-3.840305 3.310608-5.429397 5.429397-3.310608 4.370002-4.370002 10.329096-3.310607 15.758492 1.059394 5.429397 4.370002 10.329096 8.740004 13.507279L550.563981 835.386826c6.488791 4.370002 14.036976 3.840305 20.128494-0.529697l439.913545-314.110454 2.118789-2.118789c2.78091-3.840305 2.78091-7.150913 2.118789-8.740004zM739.401041 566.300636L531.627305 714.35101c-9.799399 7.018488-23.306678 0.529697-23.306678-11.38849v-296.76287c0-11.918188 13.507279-18.936676 23.306678-11.918187l207.773736 148.050374c8.077883 6.091518 8.077883 18.009706 0 23.968799z"  horiz-adv-x="1395" />

    
    <glyph glyph-name="ef-zhongdiangenzong-gongju" unicode="&#58922;" d="M849.92 450.56h-28.16c-2.56 17.92-5.12 35.84-10.24 51.2-35.84 117.76-138.24 199.68-256 212.48V747.52c0 15.36-17.92 25.6-38.4 25.6s-38.4-10.24-38.4-25.6V716.8c-7.68 0-15.36-2.56-23.04-2.56-130.56-25.6-227.84-133.12-243.2-261.12H184.32c-15.36 0-25.6-17.92-25.6-38.4s10.24-38.4 25.6-38.4h28.16c17.92-140.8 128-250.88 266.24-266.24v-28.16c0-15.36 17.92-25.6 38.4-25.6s38.4 10.24 38.4 25.6v28.16c28.16 2.56 56.32 10.24 81.92 23.04 104.96 43.52 171.52 138.24 184.32 245.76h28.16c15.36 0 25.6 17.92 25.6 38.4 0 17.92-12.8 33.28-25.6 33.28z m-102.4-107.52c-35.84-117.76-156.16-189.44-279.04-166.4-122.88 25.6-204.8 138.24-192 261.12 12.8 122.88 115.2 217.6 240.64 217.6 33.28 0 64-5.12 94.72-17.92 115.2-48.64 174.08-174.08 135.68-294.4z m-230.4 225.28c-84.48 0-153.6-69.12-153.6-153.6s69.12-153.6 153.6-153.6 153.6 69.12 153.6 153.6-69.12 153.6-153.6 153.6z m0 0"  horiz-adv-x="1024" />

    
    <glyph glyph-name="PPT" unicode="&#59062;" d="M180.736 688.1279999999999H844.8c13.824 0 25.6-11.264 25.6-25.6 0-13.824-11.264-25.6-25.6-25.6H180.736c-13.824 0-25.6 11.264-25.6 25.6 0 13.824 11.776 25.6 25.6 25.6zM414.208 484.352v-77.824c0-13.824-11.264-25.6-25.6-25.6-13.824 0-25.6 11.264-25.6 25.6V484.352c0 13.824 11.264 25.6 25.6 25.6s25.6-11.264 25.6-25.6zM538.112 571.392v-164.352c0-13.824-11.264-25.6-25.6-25.6-13.824 0-25.6 11.264-25.6 25.6V571.392c0 13.824 11.264 25.6 25.6 25.6 14.336-0.512 25.6-11.776 25.6-25.6zM662.016 501.76v-94.72c0-13.824-11.264-25.6-25.6-25.6-13.824 0-25.6 11.264-25.6 25.6V501.76c0 13.824 11.264 25.6 25.6 25.6s25.6-11.264 25.6-25.6zM538.112 267.264v-54.784c0-13.824-11.264-25.6-25.6-25.6-13.824 0-25.6 11.264-25.6 25.6v54.784c0 13.824 11.264 25.6 25.6 25.6 14.336-0.512 25.6-11.776 25.6-25.6zM392.192 65.53599999999994c-6.656 0-12.8 2.56-17.92 7.68-9.728 9.728-9.728 26.112 0 35.84l113.152 113.152c6.656 6.656 15.872 10.24 25.088 10.24 9.728 0 18.432-3.584 25.088-10.24l113.152-113.152c9.728-9.728 9.728-26.112 0-35.84s-26.112-9.728-35.84 0l-102.4 102.4-102.4-102.4c-4.608-5.12-11.264-7.68-17.92-7.68zM817.152 251.39200000000005H208.896V597.504c0 13.824 11.264 25.6 25.6 25.6 13.824 0 25.6-11.264 25.6-25.6V302.08000000000004h506.88V597.504c0 13.824 11.264 25.6 25.6 25.6s25.6-11.264 25.6-25.6v-346.112z"  horiz-adv-x="1024" />

    
    <glyph glyph-name="zizhanghaoguanli" unicode="&#58896;" d="M658.139429 393.216A402.432 402.432 0 0 0 914.285714 18.285713999999984a36.571429 36.571429 0 1 0-73.142857 0 329.142857 329.142857 0 0 1-658.285714 0 36.571429 36.571429 0 1 0-73.142857 0 402.432 402.432 0 0 0 256.146285 374.930286 255.707429 255.707429 0 0 0-108.032 241.225143 109.714286 109.714286 0 0 1 11.702858-211.456 36.571429 36.571429 0 0 0 10.678857-67.437714 36.425143 36.425143 0 0 0-20.260572-10.971429A182.857143 182.857143 0 0 1 109.714286 164.57142899999997a36.571429 36.571429 0 1 0-73.142857 0c0 97.572571 54.930286 183.661714 137.069714 226.742857a182.784 182.784 0 0 0 58.514286 311.588571 36.571429 36.571429 0 0 0 39.716571-10.459428 256.073143 256.073143 0 0 0 480.256 0 36.571429 36.571429 0 0 0 39.643429 10.459428 182.857143 182.857143 0 0 0 58.587428-311.588571A256.219429 256.219429 0 0 0 987.428571 164.57142899999997a36.571429 36.571429 0 1 0-73.142857 0 182.857143 182.857143 0 0 1-150.235428 179.931428 36.425143 36.425143 0 0 0-20.260572 11.044572 36.498286 36.498286 0 0 0 10.678857 67.437714 109.714286 109.714286 0 0 1 11.702858 211.456 255.707429 255.707429 0 0 0-108.032-241.225143zM329.142857 603.4285709999999a182.857143 182.857143 0 1 1 365.714286 0 182.857143 182.857143 0 0 1-365.714286 0z"  horiz-adv-x="1024" />

    
    <glyph glyph-name="qingsongyuxi" unicode="&#58893;" d="M432.504158 16.717817H189.988364c-45.910273 0-83.264222 37.353949-83.264222 83.264222V735.798836c0 45.910273 37.353949 83.264222 83.264222 83.264223h566.196713c45.910273 0 83.264222-37.353949 83.264222-83.264223v-307.297957c0-21.240873 17.2226-38.473468 38.473469-38.473469s38.473468 17.2226 38.473468 38.473469V735.798836c0 88.332045-71.869119 160.201164-160.201164 160.201164H189.988364c-88.342041 0-160.201164-71.869119-160.201163-160.201164v-635.806801c0-88.342041 71.869119-160.201164 160.201163-160.201164h242.515794c21.240873 0 38.473468 17.2226 38.473469 38.473469-0.009996 21.230877-17.232595 38.453477-38.473469 38.453477zM974.741166-62.328218l-89.071727 89.071727c19.441646 30.13705 30.736793 66.00164 30.736793 104.455117 0 106.564211-86.692749 193.25696-193.25696 193.256959S529.892312 237.762836 529.892312 131.198626s86.692749-193.25696 193.25696-193.25696c40.342665 0 77.836555 12.434657 108.853227 33.665534l88.34204-88.34204c7.506774-7.506774 17.36254-11.26516 27.198314-11.26516s19.691539 3.758385 27.198313 11.26516c15.013549 15.023545 15.013549 39.383078 0 54.406622zM606.809262 131.208621c0 64.142439 52.17758 116.320019 116.320018 116.320019s116.320019-52.17758 116.320019-116.320019c0-29.407364-10.995275-56.285815-29.057514-76.797001-1.259459-0.979579-2.478935-2.009137-3.638437-3.168638-1.449377-1.449377-2.708836-2.998711-3.878333-4.60802-20.841045-19.661552-48.898989-31.756355-79.745735-31.756355-64.132443 0-116.320019 52.187576-116.320018 116.330014zM744.200226 657.862325H196.485573c-21.240873 0-38.473468-17.2226-38.473469-38.473469s17.2226-38.473468 38.473469-38.473468H744.200226c21.240873 0 38.473468 17.2226 38.473469 38.473468s-17.232595 38.473468-38.473469 38.473469zM744.200226 503.988442H196.485573c-21.240873 0-38.473468-17.2226-38.473469-38.473468s17.2226-38.473468 38.473469-38.473468H744.200226c21.240873 0 38.473468 17.2226 38.473469 38.473468s-17.232595 38.473468-38.473469 38.473468zM447.437742 350.11456H196.485573c-21.240873 0-38.473468-17.2226-38.473469-38.473468 0-21.240873 17.2226-38.473468 38.473469-38.473469h250.962164c21.240873 0 38.473468 17.2226 38.473469 38.473469-0.009996 21.240873-17.232595 38.473468-38.483464 38.473468z"  horiz-adv-x="1024" />

    
    <glyph glyph-name="bi" unicode="&#59202;" d="M904 16c13.2544 0 24-10.7456 24-24 0-13.2544-10.7456-24-24-24H120c-13.2544 0-24 10.7456-24 24 0 13.2544 10.7456 24 24 24h784zM769.1152 748.3152c46.864-46.864 46.864-122.8432 0-169.7056L376.2384 185.7328a152 152 0 0 0-59.4128-36.72L202.56 110.9264c-29.3408-9.7792-61.0544 6.0768-70.8352 35.4176a56 56 0 0 0 0 35.4176l38.0896 114.2656a152 152 0 0 0 36.72 59.4128L599.408 748.3152c46.864 46.864 122.8432 46.864 169.7056 0zM245.7168 326.7424l-5.2416-5.2448a104 104 0 0 1-25.1248-40.6512l-38.088-114.264a8 8 0 0 1 10.12-10.12l114.264 38.088a104 104 0 0 1 40.6512 25.1248l5.2416 5.2432-101.8224 101.824z m356 355.9984L279.6576 360.6832l101.824-101.824 322.0576 322.0592-101.8224 101.8224z m33.9936 33.8896l101.72-101.72c25.84 28.2528 25.088 72.12-2.256 99.464-27.344 27.344-71.2112 28.096-99.464 2.256z"  horiz-adv-x="1024" />

    
    <glyph glyph-name="chuangjian" unicode="&#59226;" d="M524.552258 47.070968c227.922581 0 333.625806 106.363871 333.625807 333.625806s-106.363871 333.625806-333.625807 333.625807c-227.922581 0-333.625806-106.363871-333.625806-333.625807s105.703226-333.625806 333.625806-333.625806m0-48.227097c-254.348387 0-381.852903 126.843871-381.852903 381.852903s126.843871 381.852903 381.852903 381.852903c254.348387 0 381.192258-126.843871 381.192258-381.852903s-126.843871-381.852903-381.192258-381.852903zM484.913548 539.912258V222.141935c0-13.212903 10.570323-23.783226 23.783226-23.783225s23.783226 10.570323 23.783226 23.783225V539.912258c0 13.212903-10.570323 23.783226-23.783226 23.783226s-23.783226-10.570323-23.783226-23.783226M675.84 396.552258H357.409032c-13.212903 0-23.783226-10.570323-23.783226-23.783226s10.570323-23.783226 23.783226-23.783226h317.770323c13.212903 0 23.783226 10.570323 23.783226 23.783226s-9.909677 23.783226-23.122581 23.783226"  horiz-adv-x="1024" />

    
    <glyph glyph-name="tianjiajiahaoyoutianjiapengyou" unicode="&#58912;" d="M904.704 132.608h-276.48c-10.752 0-19.456 8.704-19.456 19.456 0 10.752 8.704 19.456 19.456 19.456h276.48c10.752 0 19.456-8.704 19.456-19.456 0-10.752-8.704-19.456-19.456-19.456zM766.464-5.632c-10.752 0-19.456 8.704-19.456 19.456v276.48c0 10.752 8.704 19.456 19.456 19.456s19.456-8.704 19.456-19.456v-276.48c0-10.752-8.704-19.456-19.456-19.456zM498.688 369.664c-112.64 0-204.288 91.648-204.288 204.288S386.048 778.24 498.688 778.24s204.288-91.648 204.288-204.288-91.648-204.288-204.288-204.288z m0 369.664c-91.136 0-165.376-74.24-165.376-165.376 0-91.136 74.24-165.376 165.376-165.376 91.136 0 165.376 74.24 165.376 165.376 0 91.136-74.24 165.376-165.376 165.376zM121.856 1.536c-10.752 0-19.456 8.704-19.456 19.456 0 210.944 171.52 382.976 382.976 382.976 81.92 0 159.744-25.6 225.792-73.728 8.704-6.144 10.752-18.432 4.096-27.136a19.0464 19.0464 0 0 0-27.136-4.096c-59.392 43.52-129.536 66.048-202.752 66.048-189.44 0-343.552-154.112-343.552-343.552-0.512-11.264-9.216-19.968-19.968-19.968z"  horiz-adv-x="1024" />

    
    <glyph glyph-name="xueshengliebiao" unicode="&#59020;" d="M451.4 368.1c-110.2 0-199.9 89.7-199.9 199.9s89.6 200 199.9 200 199.9-89.7 199.9-199.9-89.7-200-199.9-200z m0 353.5c-84.7 0-153.5-68.9-153.5-153.5s68.9-153.5 153.5-153.5 153.5 68.9 153.5 153.5S536 721.6 451.4 721.6zM545.3 544.9c-12.8 0-23.2 10.4-23.2 23.2 0 39-31.7 70.7-70.7 70.7-12.8 0-23.2 10.4-23.2 23.2 0 12.8 10.4 23.2 23.2 23.2 64.6 0 117.1-52.5 117.1-117.1 0-12.8-10.4-23.2-23.2-23.2zM802.1 1.4H100.7l-2.1 20.9c-1.2 11.9-1.8 23.8-1.8 35.4 0 195.5 159.1 354.6 354.6 354.6S806 253.2 806 57.7c0-11.6-0.6-23.5-1.8-35.4l-2.1-20.9z m-658.8 46.4h616c0.1 3.3 0.2 6.7 0.2 9.9 0 169.9-138.3 308.2-308.2 308.2S143.2 227.7 143.2 57.7c0-3.2 0-6.6 0.1-9.9zM916.4 690.7H730.8c-12.8 0-23.2 10.4-23.2 23.2 0 12.8 10.4 23.2 23.2 23.2h185.6c12.8 0 23.2-10.4 23.2-23.2 0-12.8-10.4-23.2-23.2-23.2zM854.5 567H730.8c-12.8 0-23.2 10.4-23.2 23.2 0 12.8 10.4 23.2 23.2 23.2h123.7c12.8 0 23.2-10.4 23.2-23.2 0-12.8-10.3-23.2-23.2-23.2z"  horiz-adv-x="1024" />

    
    <glyph glyph-name="biji" unicode="&#58933;" d="M129.60375088 57.19640240000001l178.21131662 11.62667973c13.6012821 0.88373813 26.42929335 6.68326959 36.06756229 16.32153853l489.28713724 489.28713724c21.92775227 21.92775227 21.92775227 57.51202029 0 79.45358096l-121.54160925 121.52780084c-21.92775227 21.92775227-57.51202029 21.92775227-79.43977253 0L142.97029004 286.1950445a56.11046685 56.11046685 0 0 1-16.34915534-36.37134727l-10.70151639-179.01220431c-0.45567747-7.7327086 5.96523235-14.12600162 13.68413257-13.61509052z m502.58463437 633.80593778c21.94156068 21.92775227 57.51202029 21.92775227 79.43977253 0l37.10319292-37.10319291c21.92775227-21.92775227 21.92775227-57.51202029 0-79.43977254L346.85143757 172.56565317000002l-116.54296547 116.54296546 401.87991315 401.89372155z m-452.6396218-556.18887511l5.30242875 88.82949015a56.13117947 56.13117947 0 0 0 8.53359628 26.55356903l114.59597991-114.60978831a56.22231495 56.22231495 0 0 0-26.48452699-8.65787197l-88.2633454-5.75810622c-7.7327086-0.4971027-14.15361843 5.90999873-13.68413255 13.64270732zM886.01454533 31.3608706H137.98545467c-15.25829109 0-27.61681646-12.35852537-27.61681647-27.61681646s12.35852537-27.61681646 27.61681647-27.61681645h748.02909066c15.25829109 0 27.61681646 12.35852537 27.61681647 27.61681645s-12.37233377 27.61681646-27.61681647 27.61681646z"  horiz-adv-x="1024" />

    
    <glyph glyph-name="juese" unicode="&#59013;" d="M750.231 227.70500000000004c-55.296 0-100.286-45.005-100.286-100.3 0-55.307 44.99-100.311 100.286-100.311 55.311 0 100.301 45.004 100.301 100.31 0 55.296-44.99 100.3-100.3 100.3z m0-148.925c-26.81 0-48.614 21.814-48.614 48.624 0 26.8 21.804 48.615 48.614 48.615 26.815 0 48.63-21.815 48.63-48.615 0-26.81-21.815-48.624-48.63-48.624z m265.185 101.027c-3.764 19.862-16.509 32.7-32.873 32.7h-2.27c-31.306 0-56.79 25.47-56.79 56.77 0 8.22 3.595 18.319 4.96 21.484 7.75 17.457 1.786 38.882-15.44 50.81l-66.399 36.765c-5.202 2.246-10.826 3.393-16.716 3.393-12.027 0-23.911-4.9-31.785-13.061-8.274-8.526-30.242-26.122-45.375-26.122-15.272 0-37.379 17.937-45.667 26.592-7.913 8.363-19.906 13.358-32.067 13.358-5.826 0-11.365-1.113-16.34-3.264l-1.242-0.51-67.57-37.111-1.608-1.039c-15.707-10.93-21.706-32.344-14.006-49.648 0.514-1.236 5.03-12.226 5.03-21.647 0-31.3-25.48-56.77-56.8-56.77h-2.646c-15.966 0-28.72-12.838-32.482-32.72-0.574-3.056-5.603-30.518-5.603-52.72 0-22.21 5.03-49.667 5.603-52.753 3.76-19.857 16.505-32.695 32.878-32.695h2.245c31.32 0 56.805-25.475 56.805-56.77 0-8.22-3.596-18.319-4.96-21.489-7.74-17.433-1.796-38.837 15.37-50.805l65.148-36.3c5.193-2.256 10.816-3.423 16.72-3.423 12.246 0 24.259 5.124 32.107 13.684 8.022 8.71 30.806 27.785 46.37 27.785 15.727 0 38.254-19.115 46.676-28.353 7.903-8.71 19.995-13.902 32.339-13.902 5.806 0 11.335 1.112 18.056 4.09l65.87 36.394 1.577 1.044c15.688 10.904 21.672 32.299 13.981 49.623-0.514 1.241-5.03 12.226-5.03 21.652 0 31.295 25.485 56.77 56.79 56.77h2.617c15.999 0 28.758 12.838 32.507 32.645 0.05 0.277 5.618 29.446 5.618 52.804 0 22.2-5.025 49.663-5.598 52.74z m-49.36-87.432c-53.487-6.998-94.238-52.67-94.238-107.526 0-12.666 3.056-24.693 5.746-32.834l-47.531-26.275c-4.273 4.188-11.093 10.464-19.545 16.73-21.009 15.589-41.36 23.521-60.47 23.521-18.95 0-39.138-7.779-60.019-23.08a191.197 191.197 0 0 1-19.42-16.405l-45.435 25.42c2.695 8.155 5.776 20.257 5.776 32.923 0 54.856-40.742 100.528-94.233 107.526-1.37 8.852-3.288 23.284-3.288 34.693 0 11.459 1.909 25.85 3.288 34.678 53.482 7.003 94.233 52.685 94.233 107.531 0 12.631-3.056 24.654-5.742 32.8L674.238 329c4.258-4.006 11.088-10.035 19.48-16.01 20.599-14.682 40.46-22.135 59.01-22.135 18.369 0 38.062 7.31 58.522 21.72 8.323 5.846 15.064 11.692 19.356 15.678l46.978-26.103c-2.69-8.15-5.761-20.207-5.761-32.873 0-54.856 40.736-100.528 94.222-107.53 1.4-9.012 3.304-23.374 3.304-34.689-0.001-11.39-1.9-25.707-3.294-34.683zM70.033-54.48299999999995v56.8c0 193.123 148.93 352.285 338.673 370.222l-0.082 0.04s0.191 0 0.495-0.01c11.632 1.093 23.4 1.706 35.313 1.706 1.793 0 3.56-0.099 5.346-0.119 41.963 3.255 105.46 13.114 138.644 42.735l16.241 12.658c63.442 49.541 99.83 123.556 99.83 203.053 0 142.45-116.68 258.334-260.112 258.334S184.27 775.052 184.27 632.6030000000001c0-79.497 36.39-153.512 99.832-203.053l16.237-12.658-19.132-7.596C112.198 342.193 2.99 182.44799999999998 2.99 2.316000000000031v-90.028c0-18.329 15.027-33.24 33.516-33.24h489.767c-15.944 20.42-29.535 42.696-40.52 66.469H70.033z m181.28 687.086c0 105.8 86.606 191.87 193.068 191.87 106.46 0 193.08-86.07 193.08-191.87 0-105.802-86.62-191.868-193.08-191.868-106.462 0.001-193.069 86.066-193.069 191.868z"  horiz-adv-x="1024" />

    


  </font>
</defs>
</svg>
