<?xml version="1.0" standalone="no"?>
<!DOCTYPE svg PUBLIC "-//W3C//DTD SVG 1.1//EN" "http://www.w3.org/Graphics/SVG/1.1/DTD/svg11.dtd" >
<svg xmlns="http://www.w3.org/2000/svg" xmlns:xlink="http://www.w3.org/1999/xlink" version="1.1">
<metadata>
Created by FontForge 20170924 at Thu May 14 19:47:45 2020
 By www-data
Typeface (c) (your company). &#60;year&#62;. All Rights Reserved
</metadata>
<defs>
<font id="icon" horiz-adv-x="2106" >
  <font-face 
    font-family="icon"
    font-weight="400"
    font-stretch="normal"
    units-per-em="2048"
    panose-1="2 0 5 0 0 0 0 0 0 0"
    ascent="1638"
    descent="-410"
    bbox="0 -402 2441 1707"
    underline-thickness="150"
    underline-position="-292"
    unicode-range="U+F000-F024"
  />
<missing-glyph horiz-adv-x="0" 
 />
    <glyph glyph-name=".notdef" unicode="&#xf000;" horiz-adv-x="0" 
 />
    <glyph glyph-name=".notdef" horiz-adv-x="0" 
 />
    <glyph glyph-name="subjhistory" unicode="&#xf001;" horiz-adv-x="1925" 
d="M1661 1130q-111 79 -255 121t-281 42q-159 0 -301.5 -54t-255.5 -175q-82 -82 -111 -186.5t-29 -215.5q0 -52 1 -103.5t1 -99.5q0 -119 -15.5 -223t-62 -184.5t-131 -132t-221.5 -62.5q63 40 105.5 95.5t66 121.5t34.5 136t11 138h76v71h-76q-3 82 -13.5 162.5
t-10.5 160.5h108q42 0 42 37q0 13 -14.5 21t-27.5 8h-108q8 184 58 330q10 -6 31.5 -17.5t44 -23.5t43.5 -20t29 -8q16 0 23.5 13t7.5 21q0 24 -15 35l-135 71q34 76 87 139.5t119 121.5l113 -148q14 -13 35 -13q34 0 34 40q0 8 -13 26.5t-31.5 42t-38.5 46t-31 38.5l-2 3
l-11 10q72 45 143 76.5t150 53.5l48 -212q8 -13 21 -25t21 -12q13 0 26.5 13.5t13.5 29.5q0 10 -7 42t-16 67.5t-18 69.5t-12 48q69 16 145.5 25t152.5 9h35l-29 -253q0 -19 10.5 -32t23.5 -13q34 0 39 34l29 261q82 -13 166.5 -30t164.5 -38q-6 -13 -27 -50t-42 -79.5
t-38.5 -78t-17.5 -46.5q0 -13 12 -22t25 -9q11 0 17.5 5t14.5 10l127 246q55 -21 105.5 -46t100.5 -57zM1774 105q-8 -13 -42 -22t-48 -9h-52q-21 2 -34.5 35t-22.5 76.5t-13 83.5t-4 55q-3 29 -9.5 63.5t-21 63.5t-41 49t-66.5 20q-23 0 -61.5 -10.5t-74 -29t-62 -47.5
t-26.5 -64q0 -42 43.5 -54t91.5 -12h45q21 0 44.5 3t52.5 3l72 -259q5 -21 24.5 -59.5t45 -80.5t50.5 -83t41 -68l10 -21q-42 -5 -84.5 -7.5t-86.5 -2.5q-37 0 -86 5t-98 17t-94 28t-71 40q-74 60 -146.5 117t-146.5 115q-55 37 -114.5 55.5t-128.5 18.5q-40 0 -79.5 -4
t-76.5 -20q40 69 56 129.5t16 137.5q0 71 -11 134.5t-11 129.5q0 119 46.5 219t124.5 175.5t182 117.5t220 42q183 0 325.5 -74t253.5 -208q-3 -45 -13.5 -61t-22.5 -22.5t-21 -13t-9 -33.5q0 -21 2.5 -42t7.5 -42l3 -5q16 -74 22.5 -148t8.5 -153q3 -77 20 -145.5
t70 -132.5zM454 42q8 3 14.5 6.5t12.5 3.5q34 16 81.5 25.5t87.5 9.5q68 0 126 -20t109.5 -53t99 -74t98.5 -80q21 -19 43.5 -38.5t53.5 -35.5q77 -53 177 -74t198 -21q100 0 185 18l29 -42q3 -3 3 -5q0 -16 -17.5 -30.5t-35.5 -14.5q-56 -11 -115 -13.5t-112 -2.5
q-72 0 -155 8t-144 40q-76 44 -142 101t-119 115q-71 71 -163.5 91t-187.5 20h-58q-29 0 -61 2.5t-32 15.5q0 6 8 20.5t16 27.5z" />
    <glyph glyph-name="subjbiology" unicode="&#xf002;" horiz-adv-x="2330" 
d="M1501 363q0 126 -12 251t-33 247q53 45 111 92t104 107q24 24 82 76.5t124 105t126.5 91.5t87.5 39q21 0 21 -30q0 -43 -36.5 -121t-94 -173.5t-127.5 -199t-137.5 -199t-125 -171t-90.5 -115.5zM1741 387q-8 0 -8 5q0 3 1 4.5t1 3.5q14 27 41 54t59 52.5t66 48.5t63 39
q97 70 221 102q11 3 20 5.5t20 2.5q19 0 32.5 -8t13.5 -29q0 -38 -43 -38q-16 0 -28.5 11t-12.5 24q0 3 6 14q-137 -35 -246 -110.5t-201 -180.5h-5zM1846 309q-8 0 -11 3q0 8 8 13q27 19 68.5 35t89 27t93 17.5t83.5 6.5q13 0 38.5 -2.5t51 -8t44.5 -17.5t19 -31
q0 -32 -40 -32q-27 0 -27 29q0 14 5 25q-29 10 -36 14t-45 4q-21 0 -41 -1t-42 -4q-70 -8 -133 -29.5t-125 -48.5zM1536 64q0 -38 -18.5 -83.5t-34.5 -75.5q-49 -88 -131 -144.5t-179 -81.5q-24 -8 -68.5 -20t-91.5 -25.5t-91.5 -23t-68.5 -9.5q-14 0 -34 5.5t-40 13.5
t-33.5 21.5t-13.5 29.5q0 19 21.5 28.5t37.5 14.5l5 3q73 24 140.5 76.5t126.5 106.5q29 27 79 67.5t106.5 78t113 64.5t104.5 27q30 0 50 -17.5t20 -55.5zM1800 250q0 -51 -40.5 -86t-94.5 -35q-53 0 -96 36t-43 85q0 56 43 91t96 35q54 0 94.5 -35t40.5 -91zM990 1286
q51 0 75.5 -39t24.5 -80q0 -40 -23 -72.5t-71 -32.5q-41 0 -68 40.5t-27 80.5q0 38 24.5 70.5t64.5 32.5zM476 349q41 0 70.5 -25.5t29.5 -65.5q0 -32 -27 -58t-67 -26q-35 0 -65 27t-30 65q0 40 26 61.5t63 21.5zM509 621q51 -48 94 -86t84.5 -73t87.5 -68.5t99 -73.5
q62 -46 133.5 -96t111.5 -106q16 -19 35 -38t41 -32q-92 -67 -182 -134.5t-179 -129.5q-51 -37 -102 -58.5t-113 -21.5q-46 0 -100 13t-109 35t-102 52.5t-74 65.5q-46 62 -83.5 96t-93.5 79l-9 6l-10 5q-8 5 -23 17.5t-15 22.5q0 11 11 19t23 20.5t22.5 35t10.5 63.5v105
q0 51 48.5 102t116 91.5t138.5 64.5t117 24h22zM613 290q0 78 -53.5 130.5t-134.5 52.5q-38 0 -73 -13.5t-63 -37.5t-44 -56.5t-16 -67.5q0 -37 17.5 -69.5t47 -56.5t67 -39t78.5 -15q75 0 124.5 49.5t49.5 122.5zM1415 443q0 -24 -1 -60t-5.5 -74t-13.5 -70t-25 -48
l-19 -17q-27 -29 -66 -58.5t-69 -29.5q-27 0 -44.5 14.5t-30.5 33.5q-43 54 -101 97t-114 86q-65 40 -152.5 103.5t-167 139t-134.5 157.5t-55 160q0 72 32.5 127.5t77.5 103.5q43 46 90.5 113t47.5 135q0 40 35 99t83 114.5t103.5 93t95.5 37.5q54 0 90.5 -35t57.5 -73
q75 -110 129 -255.5t89 -301.5t51 -310.5t16 -281.5zM1168 1210q0 35 -12 75.5t-36.5 73t-58 54t-76.5 21.5q-38 0 -67.5 -19t-49.5 -47.5t-29.5 -63t-9.5 -67.5q0 -37 10.5 -76t33.5 -71.5t55.5 -52.5t75.5 -20q40 0 69.5 17.5t51 45.5t32.5 63t11 67zM1773 928
q0 -22 -17.5 -46t-41.5 -47t-49.5 -37.5t-42.5 -14.5q-13 0 -13 13q0 19 16 43t39 47t48.5 39t44.5 16q16 0 16 -13zM1897 1035q0 17 -4 25t-20 8q-33 0 -82.5 -29.5t-94 -71.5t-77 -89t-32.5 -79q0 -33 30 -33q32 0 79.5 31t91.5 73t76.5 87.5t32.5 77.5z" />
    <glyph glyph-name="subjgeography" unicode="&#xf003;" horiz-adv-x="2101" 
d="M1052 1700q218 0 409.5 -82t333.5 -225.5t224 -335t82 -409.5t-82 -409.5t-224 -333.5t-333.5 -224t-409.5 -82t-409.5 82t-335 224t-225.5 333.5t-82 409.5t82 409.5t225.5 335t335 225.5t409.5 82zM1166 1569q-9 -24 22 -22.5t71.5 1.5t75 -18t31.5 -75q0 -21 18 -27
t21 -4.5t4.5 1.5t9 -3t39.5 -18q6 -3 16.5 -4.5t7.5 -16.5q-3 -21 10.5 -30t31.5 -13.5t36 -7.5t24 -15q30 18 13.5 48t-49.5 63t-68.5 61.5t-41.5 43.5q-21 9 -51 26.5t-57 17.5q-12 0 -39 3t-55.5 4.5t-49 -1.5t-20.5 -14zM1166 1497q-24 21 -36 12t-12 -25.5t12 -24
t39 16.5q9 6 4.5 12t-7.5 9zM1148 780q-69 -21 -66 -39t30 -24t52 3t5 45q-12 20 -13.5 18.5t-7.5 -3.5zM1076 1533q-6 12 -48 12t-88 -7.5t-85 -21t-36 -22.5q3 -15 16.5 -22.5t30 -10.5t31.5 -3t21 -3q44 -30 51.5 -42t10.5 -16.5t21 -3t87 1.5q9 33 1.5 58.5t-7.5 64.5
q0 -3 -3 3t-3 12zM1727 373q6 33 -7 85.5t-13 81.5q-33 0 -40.5 3t-10.5 4.5t-13.5 -3t-49.5 -19.5h-12q-42 -3 -64.5 4.5t-42 21t-49 30t-89.5 31.5q-60 12 -113.5 7.5t-104.5 -40.5q-42 -24 -90 -24t-105 6q-3 0 -14 6q-9 24 -37.5 58.5t-61.5 40.5q-39 6 -54 1.5
t-21 -7.5t-15 1.5t-36 31.5q-44 45 -28 80.5t56.5 55t84 16.5t49.5 -39q0 -12 4.5 -26.5t19.5 -20.5q6 3 3 3t3 3q0 12 4.5 14.5t7.5 8.5t0 22.5t-18 58.5q-6 42 16.5 90t52 89.5t58 70t37.5 28.5q6 21 -16.5 31.5t-45 18t-30 18t28.5 31.5q27 18 39 9t25.5 -22.5t31.5 -18
t57 22.5q-9 24 -58.5 36t-88.5 56q0 3 -16.5 6t-38.5 3t-44.5 -7.5t-37.5 -24.5q-18 -24 -22.5 -46.5t-9 -36t-18 -13.5t-52.5 21q-27 15 -31.5 22.5t1.5 16.5t19.5 23.5t19.5 47.5t31.5 34.5t49.5 -4.5t36 -6t-9 33q-6 12 -15 12t-18 1.5t-16.5 9t-13.5 34.5t-19.5 24
t-36 -16.5t-48 -28.5t-51.5 -15q-18 0 -21 -10.5t-1.5 -25.5t1.5 -27t-12 -15q-15 -3 -22.5 16.5t-24 34.5t-43.5 13.5t-78 -46.5q-18 -18 -38.5 -33t-32.5 -29.5t-12 -29.5t27 -30q3 -3 1.5 -69t-1.5 -149.5t1.5 -162.5t10.5 -106q14 -36 26 -45t15 -15q18 0 15 27
t-7.5 53.5t-1.5 34t36 -33.5l9 -19.5t18 -42t18 -42t9 -22.5q6 -24 13.5 -28.5t19.5 -4.5t28.5 -4.5t40.5 -25.5q18 -15 35.5 -10.5t37 9t43.5 4.5t54 -24l9 -9q9 -15 28.5 -28t43.5 -22t46 -12t37 6q9 6 45 6t45 -6q0 -15 -9 -31.5t-15 -37.5t-4.5 -48t25.5 -66
q3 -3 12 -19.5t19.5 -34t18 -34l7.5 -16.5q27 -9 52 -24l47.5 -28.5t39 -24t22.5 -10.5q3 -24 -4.5 -67.5t-15 -91t-9 -94t16.5 -76.5q27 -48 49.5 -27t45 70.5t51 103t66.5 71.5q15 9 55.5 52.5t84 100.5t77.5 115t40 94zM1010 735q9 12 4.5 19.5t-13.5 12t-19.5 7.5
t-13.5 6q3 0 4.5 2.5t7.5 -2.5q-18 14 -31.5 4t-19.5 -25q0 -15 10.5 -21t24 -7.5t27 0t19.5 4.5zM1853 860q0 -6 13.5 -4.5t25.5 18t16.5 45t-13.5 76.5q-6 15 -1.5 27t7.5 25t-4.5 31t-37.5 51q-15 15 -34.5 43.5t-40.5 58.5t-45 55t-44 37l-3 3l-6 6q-36 3 -49.5 -28
t19.5 -82l1.5 -21t4.5 -48t10.5 -54t25.5 -42q59 -50 93.5 -87.5t61.5 -109.5z" />
    <glyph glyph-name="subjchemistry" unicode="&#xf004;" horiz-adv-x="1617" 
d="M1137 1641v-549l413 -898q29 -62 48 -128t19 -133q0 -27 -5.5 -50t-10.5 -45q-24 -80 -121 -127.5t-220 -71.5t-244 -31t-194 -7q-65 0 -137.5 3t-145.5 9.5t-144.5 18.5t-130.5 31q-56 16 -104.5 36.5t-84 51.5t-55.5 75.5t-20 106.5q0 67 19 133t48 128l413 884v572
q75 29 172 40t181 11q70 0 156 -11t148 -49zM1046 410q67 0 110 -43.5t43 -107.5q0 -65 -43 -106.5t-110 -41.5q-60 0 -100 41.5t-40 106.5q0 64 40 107.5t100 43.5zM658 62q35 0 47 -17.5t12 -47.5q0 -27 -13.5 -44.5t-45.5 -17.5q-22 0 -42 17.5t-20 44.5q0 30 18.5 47.5
t43.5 17.5zM868 801q38 0 60.5 -26t22.5 -61q0 -32 -22.5 -56.5t-60.5 -24.5q-33 0 -54.5 26t-21.5 55q0 30 21.5 58.5t54.5 28.5zM614 1272q106 35 211 35q86 0 172 -32v-229q30 -51 46 -103l383 -819q21 -48 38.5 -105t17.5 -108q0 -30 -8 -48q-8 -25 -35 -38l-5 -3l-6 -2
q-56 -33 -135.5 -53t-166 -29.5t-170 -13.5t-145.5 -4q-64 0 -148 4t-170 13.5t-165.5 29.5t-138.5 53l-8 5q-27 11 -35 38q-6 27 -6 48q0 54 15 108t39 105l415 895q3 5 1.5 9t3.5 10v234zM658 129q-54 0 -92 -39t-38 -93t41 -89q37 -43 89 -43q29 0 50.5 9.5t43.5 31.5
q38 43 38 91q0 54 -39 93t-93 39zM1046 480q-43 0 -81 -19t-66 -48.5t-46 -70t-18 -83.5t18 -82t46 -69t66 -47.5t81 -17.5q91 0 156 63.5t65 152.5t-65 155t-156 66zM868 865q-59 0 -103.5 -44.5t-44.5 -106.5t43 -105t105 -43q65 0 109 43t44 105q0 65 -45.5 108
t-107.5 43zM1048 1048v534q-40 14 -92.5 15t-98.5 1q-70 0 -147 -2.5t-144 -16.5v-528l-420 -905q-25 -54 -42.5 -117.5t-17.5 -117.5q0 -38 8 -65q14 -37 61 -65.5t114.5 -48.5t147 -32.5t155 -19t139 -9t100.5 -2.5q122 0 260.5 12t257.5 44q37 14 92.5 35.5t79.5 53.5
q19 22 26 49t7 54q0 53 -19 115t-41 114z" />
    <glyph glyph-name="subjphisycs" unicode="&#xf005;" horiz-adv-x="2389" 
d="M1197 869q92 0 154.5 -63t62.5 -160q0 -94 -62.5 -157t-154.5 -63q-97 0 -160 63t-63 157q0 97 63 160t160 63zM1794 223q69 0 113 -44.5t44 -104.5q0 -65 -44 -106.5t-113 -41.5q-54 0 -99.5 41.5t-45.5 106.5q0 60 45.5 104.5t99.5 44.5zM374 554q60 0 106 -40t46 -108
q0 -57 -46 -101.5t-106 -44.5t-104 44.5t-44 101.5q0 68 44 108t104 40zM1720 1700q60 0 104.5 -47t44.5 -104q0 -69 -44.5 -112t-104.5 -43q-69 0 -110 43t-41 112q0 57 41 104t110 47zM883 463q-23 37 -46 73t-43 81q-31 -71 -54 -137t-46 -123q66 -11 133 -22.5
t136 -17.5q-17 32 -40 64.5t-40 81.5zM769 660q-32 77 -62 143t-53 120q-165 -46 -269.5 -114.5t-104.5 -162.5q0 -14 4.5 -30t15.5 -33q-43 -29 -70 -61.5t-36 -78.5q-88 43 -141 97t-53 106q0 111 177 199.5t454 134.5q-97 260 -104 453t90 250q83 51 246 -50t340 -304
q97 108 188.5 189.5t171.5 127.5q-9 -23 -21.5 -46t-12.5 -51q0 -29 11 -52t17 -40q-66 -5 -147 -55t-167 -128q54 -60 95.5 -121t92.5 -130q72 -3 140.5 -10t139.5 -21q32 114 33.5 211t-24.5 154q49 0 91.5 27.5t68.5 69.5q0 -100 -25.5 -220t-80.5 -254
q272 -48 443.5 -137t171.5 -197q0 -106 -167.5 -193t-435.5 -136q3 -20 8.5 -32.5t8.5 -24.5h-1.5h-7.5q-11 0 -25.5 -3t-28.5 -8q-6 14 -8.5 25.5t-5.5 31.5q-75 -17 -153.5 -23t-152.5 -11q-54 -63 -91.5 -123t-88.5 -106q126 -123 240 -174.5t183 -11.5q20 6 33 20.5
t21 31.5q20 -9 40 -16t37 -7q35 0 55 7t40 21q11 -111 -9 -188t-77 -109q-89 -54 -254.5 51.5t-345.5 320.5q-177 -215 -344.5 -320.5t-252.5 -51.5q-100 57 -91.5 247t102.5 453q-14 3 -37 6t-40 9q9 14 11.5 32.5t2.5 38.5q26 -9 46 -16t40 -13q29 69 61.5 143.5
t67.5 142.5zM1454 974q26 -31 44.5 -64t44.5 -73q20 -31 37 -59.5t34 -74.5q23 63 44.5 121.5t38.5 109.5q-57 15 -118.5 25t-124.5 15zM1637 660q34 -68 68.5 -139.5t63.5 -140.5q151 40 246.5 110t95.5 156q0 91 -100 161t-257 113q-25 -54 -55 -120t-62 -140zM1709 366
q-15 51 -42 115.5t-53 135.5q-20 -45 -40 -81t-48 -73q-23 -49 -44.5 -81.5t-41.5 -64.5q69 9 139 20.5t130 28.5zM1591 663q-17 34 -39.5 75.5t-45.5 78.5q-20 55 -44.5 90.5t-50.5 72.5q-54 9 -109.5 10.5t-104.5 1.5q-46 0 -97 -1.5t-94 -10.5q-37 -34 -58.5 -71
t-47.5 -92q-20 -37 -44.5 -78.5t-41.5 -75.5q17 -46 46 -93t51 -90q26 -54 53 -92.5t56 -78.5q43 -3 88.5 -6t88.5 -3q46 0 97.5 3t94.5 11q34 35 58 73.5t47 92.5q23 43 50 90t47 93zM1371 1026q-40 57 -84 108.5t-84 94.5q-43 -43 -86 -94.5t-88 -108.5q42 3 85 4.5
t83 1.5t87 -1.5t87 -4.5zM1160 1274q-117 109 -227 156t-176 13q-77 -46 -90 -164.5t27 -284.5q69 15 140.5 20.5t139.5 8.5q52 69 94.5 131.5t91.5 119.5zM709 940q22 -54 39.5 -114t45.5 -123q17 46 34.5 74.5t42.5 59.5q18 40 38 74.5t42 65.5q-62 -8 -123.5 -16.5
t-118.5 -20.5zM1049 266q37 -49 77 -96t77 -90q37 43 77 90t80 99q-40 -3 -83 -3h-80h-74h-74zM1163 43q-46 46 -86 106t-77 123q-89 2 -166 9.5t-154 18.5q-40 -163 -25.5 -280t88.5 -163q71 -40 184 11.5t236 174.5z" />
    <glyph glyph-name="subjtechnology" unicode="&#xf006;" horiz-adv-x="2348" 
d="M320 442q67 0 126.5 -24.5t104.5 -68t70 -101.5t25 -126q0 -65 -25 -124.5t-70 -103t-104.5 -69t-126.5 -25.5q-66 0 -124 25.5t-101.5 69t-69 103t-25.5 124.5q0 68 24 126t68 101.5t102 68t126 24.5zM320 -77q82 0 140 58.5t58 140.5t-57 141.5t-141 59.5
q-85 0 -139.5 -59.5t-54.5 -141.5t55.5 -140.5t138.5 -58.5zM320 248q55 0 90 -36.5t35 -89.5q0 -51 -36 -88.5t-89 -37.5q-49 0 -85 37.5t-36 88.5t35 88.5t86 37.5zM1968 442q68 0 126 -24.5t101.5 -68t68 -101.5t24.5 -126q0 -65 -25.5 -124.5t-69 -103t-102 -69
t-123.5 -25.5t-124.5 25.5t-104 69t-70 103t-25.5 124.5q0 68 25.5 126t70 101.5t104 68t124.5 24.5zM1968 -77q85 0 142 58.5t57 140.5t-57 141.5t-142 59.5t-141.5 -59.5t-56.5 -141.5t58 -140.5t140 -58.5zM416 809l434 17v448h-208q-5 0 -22 1.5t-17 13.5q0 9 13 21.5
t29 22t33 15.5t24 9q22 7 43.5 9.5t43.5 7.5q49 7 96 14t95 15q8 2 17 2q136 19 264.5 36t258.5 29l29 5q78 10 155.5 17t154.5 7h33t30 -4q53 -15 86 -84t51 -155t25.5 -170.5t7.5 -128.5q0 -17 -4 -44.5t-4 -44.5l22 -228q-36 19 -65 21.5t-70 2.5h-78q-143 0 -242 -70
t-162 -194q-5 -4 -5 -9q-15 -27 -27 -57t-17 -64q-99 -3 -192 -6.5t-193 -3.5q-12 0 -36 5t-29 9q-53 17 -83.5 44t-53.5 59.5t-43.5 69t-56.5 70.5q-70 70 -151.5 99t-182.5 36zM1440 1274v-411q138 12 271.5 38.5t268.5 60.5q-9 44 -27.5 91t-45 89.5t-61.5 77.5t-79 54
h-327zM949 1274v-431h90t89 3l-121 152q-5 5 -6 12.5t-1 12.5q0 31 36 31q17 0 29 -15l153 -191h55q3 0 4 1.5t4 1.5q14 2 33.5 2t38.5 5v416h-404zM375 647q-7 3 -15.5 3h-15.5q-37 0 -75 -8v163h106v-158zM1932 512q-78 -5 -139.5 -42.5t-107.5 -95.5t-74 -128.5
t-40 -140.5q-114 -12 -230 -13t-227 -1q-83 0 -135 7t-92 27.5t-77.5 58t-90.5 98.5q-44 51 -82.5 92t-82 70t-95.5 44.5t-123 15.5q-58 0 -120.5 -16.5t-118.5 -43.5l-41 92v10q58 29 134 46t139 17q102 0 197.5 -36.5t165.5 -106.5q29 -29 53.5 -59.5t50.5 -61.5
q44 -51 74.5 -79t61.5 -41t72.5 -17t109.5 -4q43 0 85.5 -1t85.5 -1q51 0 103 2.5t106 7.5q26 82 62.5 153.5t88.5 126t122 86t167 31.5q75 0 129.5 -7.5t99.5 -25.5t88.5 -49.5t96.5 -80.5l-60 -77l-27 22q-39 31 -68 54t-61.5 37.5t-72.5 22t-98 7.5h-29zM1968 248
q53 0 87 -37.5t34 -88.5t-35 -88.5t-86 -37.5t-88.5 37.5t-37.5 88.5q0 53 35 89.5t91 36.5z" />
    <glyph glyph-name="subjmathematics" unicode="&#xf007;" horiz-adv-x="2017" 
d="M1434 1312q-17 0 -39 -4t-44 -13t-36.5 -22t-14.5 -34q0 -23 16 -39t39.5 -27.5t49.5 -16t44 -4.5q44 0 77.5 11.5t59.5 58.5q-3 58 -49.5 74t-102.5 16zM1012 1376q-15 0 -38.5 -5.5t-43.5 -16t-35 -25t-15 -31.5q0 -24 17.5 -38.5t41 -26t51 -16t45.5 -4.5
q32 0 68.5 20.5t59.5 52.5q0 29 -16 46.5t-38 28t-49.5 13t-47.5 2.5zM1099 1595q-17 0 -42 -4.5t-47 -13t-36.5 -23t-14.5 -38.5q0 -14 9 -32q32 -26 68.5 -36t77.5 -10q38 0 74 16t51 51v8q0 56 -48 69t-92 13zM598 1441q-18 0 -40 -6t-40.5 -16.5t-33.5 -25t-15 -31.5
q0 -23 16 -39.5t41 -25t51 -11.5t47 -3q38 0 71.5 13t59.5 48v15q0 29 -17.5 45t-42 25t-51 10.5t-46.5 1.5zM181 685q-24 -11 -31 -31.5t-7 -43.5q0 -24 8.5 -53t24.5 -52.5t39.5 -39.5t52.5 -16q24 32 24 64q0 24 -9 53t-25 55.5t-36.5 44t-40.5 19.5zM204 400
q-44 -35 -44 -70q0 -21 9 -53t25 -62.5t36.5 -52.5t43.5 -22t29 17.5t6 38.5q0 58 -25 119t-80 85zM405 146q-23 -26 -23 -79q0 -49 30.5 -106t88.5 -74q30 38 30 84q0 24 -9 54.5t-23.5 56.5t-39.5 45t-54 19zM414 458q-20 -12 -33.5 -25t-13.5 -33q0 -35 25 -79t39 -76
q0 -3 6 -8q15 -33 56 -33q23 0 26 20.5t3 44.5q0 26 -4.5 56.5t-17.5 58t-33.5 48t-52.5 26.5zM402 802q-29 -35 -29 -82q0 -17 9 -46t25 -57t39 -49.5t50 -21.5q20 0 23 24.5t3 39.5q0 26 -7.5 59.5t-20.5 62.5t-33.5 49.5t-46.5 20.5h-12zM184 1015q-50 -15 -50 -58
q0 -21 10.5 -51.5t25 -58t34.5 -46.5t44 -19q23 0 30.5 20.5t7.5 37.5q0 50 -31 103.5t-71 71.5zM1665 216q-27 0 -54.5 -13t-51 -35t-38 -51t-14.5 -58v-29.5t6 -23.5q12 -17 58 -17q24 0 50 16t49.5 40.5t39.5 52.5t16 51q0 29 -14.5 48t-46.5 19zM1694 601
q-26 0 -57 -14.5t-58.5 -36.5t-45 -49.5t-17.5 -54.5q0 -23 12 -43q26 -27 61 -27q20 0 48 16.5t51 41t40.5 52t17.5 51.5q0 20 -14.5 42t-37.5 22zM1271 438q-23 0 -51 -16t-52.5 -39.5t-42 -50t-17.5 -49.5t6 -52q23 -21 61 -21q23 0 51 16t51 39.5t39 52.5t16 53
q0 67 -61 67zM1265 65q-23 0 -50.5 -16.5t-52.5 -39.5t-42.5 -51t-17.5 -54q0 -20 4.5 -32t10.5 -20q26 -9 52 -9t55.5 14.5t52.5 38t37.5 52.5t14.5 58q0 59 -64 59zM933 1146q-15 0 -38 -4.5t-45 -14.5t-38 -27.5t-16 -40.5q0 -21 17.5 -37t42 -27.5t51 -17.5t43.5 -6
q41 0 74.5 22t51.5 51v12q0 55 -48 72.5t-95 17.5zM1781 895q-43 24 -95.5 34t-99.5 10q-160 0 -279.5 -81.5t-213.5 -198.5q88 64 165 106.5t157.5 70t167.5 41t198 18.5zM659 837q-18 47 -60 102.5t-96 100.5t-114 75.5t-112 30.5q-35 0 -61.5 -8.5t-55.5 -29.5
q152 0 280 -78.5t219 -192.5zM0 799q0 44 1.5 90.5t10.5 87.5q5 38 22.5 77.5t29.5 77.5q67 166 204 301.5t309 190.5q108 41 229 58.5t238 17.5q352 0 591.5 -182t323.5 -526q23 -91 40.5 -174t17.5 -170q0 -120 -32 -234q-41 -198 -156 -349.5t-269 -274.5
q-32 -20 -61.5 -43.5t-61.5 -37.5q-93 -58 -215.5 -83t-230.5 -25q-256 0 -443 100.5t-309 268t-180.5 383.5t-58.5 446z" />
    <glyph glyph-name="subjvisualarts" unicode="&#xf008;" horiz-adv-x="1787" 
d="M1438 1225l152 475l155 -475h42v-1624h-394v1624h45zM45 1225l154 475l153 -475h42v-1624h-394v1624h45zM903 677l385 -294v-192l68 -65v-391h-107v92q0 29 -26.5 49.5t-60.5 20.5q-39 0 -66.5 -20.5t-27.5 -49.5v-92h-68v160q0 39 -30.5 68t-74.5 29q-45 0 -75 -29
t-30 -68v-160h-71v92q0 29 -26.5 49.5t-68.5 20.5q-34 0 -61.5 -20.5t-27.5 -49.5v-92h-105v391l71 65v192zM1288 779l68 -170v-431l-36 34v236h-50l-370 279l-383 -279h-47v-225l-40 -32v418l71 170l53 -102l351 259l328 -259zM430 -297h926v-31h-926v31zM430 -362h926v-37
h-926v37zM1472 763q0 -50 33 -84t77 -34q50 0 84 34t34 84q0 45 -34 78t-84 33q-44 0 -77 -33t-33 -78zM73 763q0 -50 34.5 -84t81.5 -34t80 34t33 84q0 45 -33 78t-80 33t-81.5 -33t-34.5 -78zM732 260q0 -69 47 -117.5t118 -48.5t122 48.5t51 117.5q0 73 -51 123t-122 50
t-118 -50t-47 -123z" />
    <glyph glyph-name="subjall" unicode="&#xf009;" horiz-adv-x="2051" 
d="M0 1433q0 109 77.5 188t186.5 79q112 0 189.5 -79t77.5 -188q0 -116 -77.5 -195t-189.5 -79q-109 0 -186.5 79t-77.5 195zM0 651q0 116 77.5 196.5t186.5 80.5q112 0 189.5 -80.5t77.5 -196.5q0 -119 -77.5 -199.5t-189.5 -80.5q-109 0 -186.5 80.5t-77.5 199.5zM0 -134
q0 116 77.5 195t186.5 79q112 0 189.5 -79t77.5 -195q0 -109 -77.5 -188t-189.5 -79q-109 0 -186.5 79t-77.5 188zM755 1433q0 109 76 188t195 79q115 0 192.5 -79t77.5 -188q0 -116 -77.5 -195t-192.5 -79q-119 0 -195 79t-76 195zM755 651q0 116 76 196.5t195 80.5
q115 0 192.5 -80.5t77.5 -196.5q0 -119 -77.5 -199.5t-192.5 -80.5q-119 0 -195 80.5t-76 199.5zM755 -134q0 116 76 195t195 79q115 0 192.5 -79t77.5 -195q0 -109 -77.5 -188t-192.5 -79q-119 0 -195 79t-76 188zM1520 1433q0 109 77.5 188t186.5 79t188 -79t79 -188
q0 -116 -79 -195t-188 -79t-186.5 79t-77.5 195zM1520 651q0 116 77.5 196.5t186.5 80.5t188 -80.5t79 -196.5q0 -119 -79 -199.5t-188 -80.5t-186.5 80.5t-77.5 199.5zM1520 -134q0 116 77.5 195t186.5 79t188 -79t79 -195q0 -109 -79 -188t-188 -79t-186.5 79t-77.5 188z
" />
    <glyph glyph-name="subjnew" unicode="&#xf010;" horiz-adv-x="2441" 
d="M479 1342q14 2 39.5 26.5t65.5 46t92 37.5q156 81 313 51t248.5 -90.5t225 -130.5t273.5 -86q271 -16 419 156q6 -8 34 -135.5t140 -558t112 -447.5q-62 -56 -76 -67q-323 -218 -769 70q-347 234 -635 97q-68 -38 -121.5 -75.5t-59.5 -45.5q-104 334 -226 861
q-29 137 -32 145q-35 86 -43 146zM170 1352q-22 0 -42 -4t-36 -1t-35 13q-57 35 -43 100q5 32 28 49.5t41.5 23t60.5 16t55 16.5q11 0 67.5 18.5t93 16t60.5 -29.5q46 -48 13 -110q-21 -40 -91 -57l444 -1708h-186z" />
    <glyph glyph-name="courses" unicode="&#xf011;" horiz-adv-x="2255" 
d="M1594 1647q0 54 -54 54h-476q-54 0 -54 -54v-87q0 -54 54 -54h476q54 0 54 54v87zM1010 -346q0 -55 54 -55h476q54 0 54 55v86q0 54 -54 54h-476q-54 0 -54 -54v-86zM1594 1258q0 54 -54 54h-476q-54 0 -54 -54v-1215q0 -54 54 -54h476q54 0 54 54v1215zM2255 1273
q0 39 -38 39h-507q-39 0 -39 -39v-107q0 -38 39 -38h507q38 0 38 38v107zM1671 -362q0 -39 39 -39h507q38 0 38 39v117q0 39 -38 39h-507q-39 0 -39 -39v-117zM1671 122q0 -39 39 -39h507q38 0 38 39v678q0 38 -38 38h-507q-39 0 -39 -38v-678zM1671 974q0 -38 39 -38h507
q38 0 38 38v18q0 38 -38 38h-507q-39 0 -39 -38v-18zM2255 -52q0 38 -38 38h-507q-39 0 -39 -38v-18q0 -39 39 -39h507q38 0 38 39v18zM321 261q-78 0 -64 77l149 849q10 54 65 54h198q78 0 64 -77l-150 -849q-9 -54 -64 -54h-198zM14 -324q-14 -77 64 -77h451q55 0 64 55
l324 1834q13 77 -65 77h-451q-54 0 -64 -54z" />
    <glyph glyph-name="resource" unicode="&#xf012;" horiz-adv-x="2285" 
d="M1902 290h-198v198h198v-198zM1902 -199h-198v198h198v-198zM1511 -1v108h-100v92h100v93h93v-93h100v-92h-100v-108h-93zM1411 -199h-198v198h198v-198zM1213 488h198v-198h-198v198zM1153 688q-55 0 -94 -39q-38 -39 -38 -94v-821q0 -55 38 -94q39 -39 94 -39h822
q55 0 94 39t39 94v821q0 55 -39 94t-94 39h-822zM2100 770l154 415q31 86 -7 169t-124 115l-265 98l-5 -797h247zM1804 770l4 707q0 91 -64 156t-156 66l-351 2l340 -931h227zM941 624q0 60 43 103q42 43 103 43h429l-277 773q-30 86 -113 125t-169 8l-793 -284
q-86 -31 -125 -113q-39 -83 -8 -169l424 -1183q31 -86 113 -125q83 -39 169 -8l204 73v757z" />
    <glyph glyph-name="user" unicode="&#xf013;" 
d="M1420 781q-158 -158 -381 -158t-381 158t-158 381t158 381t381 158t381 -158t158 -381t-158 -381zM117 -398q-48 0 -82 35q-35 34 -35 82v7q0 299 212 510q211 212 510 212h662q299 0 511 -212q211 -211 211 -510v-7q0 -48 -34 -82q-35 -35 -83 -35h-1872z" />
    <glyph glyph-name="experiment" unicode="&#xf014;" horiz-adv-x="1482" 
d="M169 565q-13 5 -17 14.5t-1 17.5l295 827q11 29 35 18l256 -85h2q188 -60 324 -162t224.5 -228.5t133.5 -269t53 -286.5t-20 -283t-83 -252h-1228v280q0 10 11.5 22t25.5 12h567q14 0 25.5 -14.5t11.5 -19.5v-103h72q87 76 126.5 174t38 198.5t-41 196.5t-113.5 173
q8 3 16 16q71 58 71 164q0 103 -71 166q-34 32 -76.5 50.5t-95.5 18.5q-100 0 -169 -69q-71 -63 -71 -166q0 -106 71 -164q8 -11 29 -27l-105 -290q-8 -24 -35 -19zM491 1495q-21 5 -10 21l60 172q0 5 8 9t14 1l279 -92q19 -6 11 -24l-58 -169q-8 -13 -24 -13zM710 1154
q74 0 127 -50t53 -124q0 -71 -53 -121.5t-127 -50.5t-125.5 50.5t-51.5 121.5q0 74 51.5 124t125.5 50zM1405 -158q13 0 33 -14.5t20 -36.5v-137q0 -21 -16 -37t-37 -16h-1350q-21 0 -36.5 14.5t-15.5 35.5l-3 146q0 34 37 45h1368zM37 222q-13 0 -25 10.5t-12 26.5v69
q0 13 12 23.5t25 10.5h747q35 0 35 -34v-69q0 -37 -35 -37h-747z" />
    <glyph glyph-name="specimen" unicode="&#xf015;" horiz-adv-x="2105" 
d="M807 1669q-30 -30 -30 -72v-546l-26 -17q-9 73 -18 140q-3 25 -6 46q-3 18 -4 28q-8 46 -47 71t-84 12q-208 -62 -335 -182q-128 -119 -187 -308q-49 -154 -62 -387q-8 -143 -5 -467v-1v-50v-42v-42l1 -87q0 -96 52 -139q19 -15 43 -21q9 -3 18 -4q8 -1 15 -1q46 0 91 33
q29 20 88 80l2 3l11 10l11 11q12 13 22 22q26 24 38 31q26 14 58 27l29 11l28 10l6 2l18 6l19 7q22 8 39 15q43 20 75 44q83 61 114 175q25 95 23 296q-3 152 -21 355l-2 29l-24 -17q-156 -113 -196 -275q-64 -257 -173 -377q-35 -38 -72 -58q-12 -7 -22 -11q-4 -1 -7 -2h-3
l-1 -1h-5q-22 0 -26 22q-2 10 4 19q6 10 17 12h1l2 1l4 1q5 2 12 6q20 12 40 31q66 63 117 184l19 45l-43 -24q-81 -47 -145 -47q-60 0 -106 42q-19 18 -2 37q8 8 19 9q11 0 19 -7q30 -27 72 -27q53 0 124 42q25 16 52 36l20 16q8 7 15 13l4 4l1 4l4 13l4 15l4 15
q17 69 54 131l13 22l-26 3q-68 7 -126 -10q-76 -22 -127 -83q-8 -10 -20 -10q-10 0 -17 6q-9 7 -10 18t6 19q75 90 191 110q42 7 89 4q33 -2 65 -9l10 -2l6 7q41 49 91 87l12 10l-9 13q-19 24 -40 47q-29 31 -59 55q-83 64 -163 64q-27 0 -27 26q0 27 27 27q97 0 193 -74
q35 -27 69 -63q24 -26 45 -54l9 -12l12 8q62 38 130 65h1l27 18q45 30 45 85v601q0 42 -30 72t-72 30t-72 -30zM1845 1149q-127 120 -335 182q-45 13 -84 -12q-40 -25 -47 -71q-1 -10 -4 -28q-3 -21 -6 -46q-9 -67 -18 -140l-25 17v546q0 42 -31 72q-30 30 -72 30t-72 -30
t-30 -72v-601q0 -55 45 -85l27 -18h1q68 -27 129 -65l13 -8l9 12q21 28 45 54q34 36 69 63q96 74 193 74q27 0 27 -27q0 -26 -27 -26q-80 0 -163 -64q-30 -24 -59 -55q-22 -23 -40 -47l-10 -13l13 -10q49 -38 91 -87l6 -7l10 2q32 7 65 9q46 3 89 -4q116 -20 190 -110
q7 -8 6 -19t-9 -18q-7 -6 -17 -6q-12 0 -20 10q-51 61 -127 83q-58 17 -126 10l-26 -3l13 -22q37 -63 54 -131q5 -18 12 -43l1 -4l4 -4q7 -6 15 -13l20 -16q26 -20 52 -36q70 -42 124 -42q42 0 72 27q8 7 19 7q11 -1 18 -9q18 -20 -1 -37q-46 -42 -107 -42q-64 0 -145 47
l-42 24l19 -45q51 -121 116 -184q21 -19 41 -31q6 -4 12 -6l4 -1l1 -1h2q11 -3 17 -12t4 -19v-1q-4 -21 -26 -21h-5l-2 1h-2q-3 1 -7 3q-11 4 -23 10q-36 20 -71 58q-109 120 -173 377q-40 161 -195 275l-24 17l-3 -29q-43 -483 3 -651q31 -113 113 -175q32 -24 76 -44
q17 -7 38 -15l19 -7l18 -6l4 -2l29 -10l29 -11q33 -13 60 -27q13 -7 40 -33q10 -9 22 -22l11 -11l9 -9q58 -60 87 -81q48 -34 93 -34q7 0 15 1q10 1 19 4q24 6 42 21q52 43 52 139q0 52 1 115v54l1 27v25v1q5 625 -68 854q-59 189 -187 308z" />
    <glyph glyph-name="qrcode" unicode="&#xf016;" horiz-adv-x="2100" 
d="M0 801h900v900h-900v-900zM150 1551h600v-600h-600v600zM1200 1701v-900h900v900h-900zM1950 951h-600v600h600v-600zM0 -399h900v900h-900v-900zM150 351h600v-600h-600v600zM300 1401h300v-300h-300v300zM1800 1101h-300v300h300v-300zM300 201h300v-300h-300v300z
M1950 501h150v-600h-600v150h-150v-450h-150v900h450v-150h300v150zM1950 -249h150v-150h-150v150zM1650 -249h150v-150h-150v150z" />
    <glyph glyph-name="mobject" unicode="&#xf017;" horiz-adv-x="1882" 
d="M1794 1227q53 -31 0 -61l-797 -464q-53 -30 -105 0l-803 464q-53 30 -1 61l798 463q52 30 105 0zM252 276q4 -42 28 -77q29 -45 78 -73q-49 28 -78 73q-24 35 -28 77zM358 642q-25 14 -40 10q15 4 40 -10zM600 366q-1 -30 -14 -48l-23 -21l24 -47l12 -63v-77
q0 -31 -10 -50q-10 -21 -27 -29l-40 -7l-50 18l-114 66q-53 31 -87 83q-35 53 -35 115v15q0 19 12 22l26 -7l27 -23l13 -37l-2 -19l9 -32l37 -32l121 -69l17 -6l14 2l10 11l3 16l1 88l-11 37l-25 28l-105 60l-25 26l-7 33l8 24q8 8 24 -1l103 -60q16 -9 27 -2q11 6 11 22v75
l-11 45l-33 33l-122 70q-23 13 -33 6q-12 -6 -12 -37q0 -19 -13 -22l-26 6l-26 25l-12 36l8 50l23 32l37 9q23 -2 52 -18l118 -68l51 -40l40 -53l26 -59l9 -60v-66zM55 1118q-52 30 -52 -30l-3 -923q0 -60 52 -91l803 -463q53 -31 53 30l3 922q0 61 -53 91zM524 361
q15 11 15 32q0 -21 -15 -32zM1553 631l-23 4l-28 -10l-168 -97l1 -427l170 98q29 16 48 47q21 31 20 67v272l-6 29zM1606 221l-45 -60l-56 -44l-239 -138l-2 595l237 137l56 19q27 3 46 -8q18 -9 30 -32q11 -22 11 -56l1 -282l-10 -65zM1879 1088q0 60 -53 30l-803 -464
q-53 -30 -52 -91l2 -922q0 -61 53 -30l803 463q53 31 52 91z" />
    <glyph glyph-name="manimation" unicode="&#xf018;" horiz-adv-x="2065" 
d="M649 368q-29 -14 -59 0q-15 15 -15 45v575q0 29 15 44q30 30 59 0l457 -280q30 -15 30 -59q0 -30 -30 -44zM1490 1003v265q0 133 -133 133h-1209q-148 0 -148 -133v-1121q0 -148 148 -148h1209q133 0 133 148v251l457 -295q45 -30 74 0q44 15 44 59v1077q0 44 -44 59
q-29 14 -74 0z" />
    <glyph glyph-name="mpanorama" unicode="&#xf019;" 
d="M314 698q4 373 93 666l-102 31q-287 -290 -304 -697h313zM1022 1707q-251 -8 -470 -127q-41 -76 -75 -176q252 -57 545 -60v363zM1681 1417l75 21l-120 93zM1084 1344q293 3 544 60q-33 100 -74 176q-219 119 -470 127v-363zM0 636q7 -423 305 -723l110 33
q-96 300 -101 690h-314zM1022 -35q-288 -3 -536 -59q38 -109 86 -189q211 -108 450 -115v363zM1791 636q-4 -390 -100 -690l110 -33q297 300 305 723h-315zM1084 -398q238 7 450 115q48 80 86 189q-248 56 -536 59v-363zM1618 -234l138 104l-83 23zM350 -130l138 -104
l-55 127zM470 1531l-120 -93l74 -21zM1084 398h37q50 -1 51 50l1 145q0 28 -24 43h-65v-238zM1022 399v237h-85q-21 -15 -21 -41l-1 -145q-1 -50 50 -51h57zM946 341q-77 1 -76 78l2 217h-42l-2 -217q0 -77 -77 -76l-233 2h-11q-27 4 -24 31t29 27l221 -2q51 0 51 50l1 145
q0 25 -19 40h-394q4 -381 96 -676q255 59 554 62v319h-76zM1022 930h-53q-50 1 -51 -50l-1 -134q0 -36 34 -48h71v232zM872 698l2 214q0 77 77 76h71v298q-304 3 -561 65q-85 -289 -89 -653h374q40 8 40 49l1 134q1 51 -50 51l-223 2q-26 0 -29 26q-2 26 24 31l247 -1
q77 -1 76 -78l-1 -214h41zM1514 395q31 0 31 31l2 210h-242l-1 -208q-1 -32 31 -32zM1599 636l-2 -223q0 -77 -77 -76l-192 1q-77 1 -77 78l2 220h-35l-2 -220q-1 -77 -78 -76h-54v-318q299 -3 554 -62q92 295 96 676h-135zM1339 927q-31 1 -32 -31l-1 -198h241l2 196
q0 32 -31 32zM1687 1179l-42 172q-257 -62 -561 -65v-299h59l34 -8q18 -9 13 -30q-6 -20 -27 -20h-79v-231h170l1 211q1 77 78 76l192 -1q77 -1 76 -78l-1 -208h134q-2 153 -19 299q-80 15 -79 97q0 57 51 85zM1696 1127l-13 -34q0 -29 25 -44zM1765 1053q19 15 20 40
q0 35 -34 48zM1698 1364l44 -173q91 -8 90 -99q-1 -64 -60 -89q18 -149 19 -305h314q-17 407 -304 697z" />
    <glyph glyph-name="mannulus" unicode="&#xf020;" horiz-adv-x="2280" 
d="M1743 1615q1 47 47 46q46 0 46 -46q-1 -46 -47 -46t-46 46zM1701 1616q-1 -89 88 -90t89 88q1 89 -88 90t-89 -88zM1556 1010q0 -28 -28 -28l-162 1q-29 0 -29 29l4 425q0 28 28 28l163 -1q28 -1 28 -29zM1364 1518q-70 0 -71 -70l-3 -447q-1 -70 69 -71l174 -1
q70 0 71 69l3 448q1 70 -69 70zM617 1522q-24 -4 -22 -27q2 -24 26 -24l203 -2q45 0 45 -46l-1 -122q0 -46 -46 -45l-205 1q-23 1 -23 -22t23 -23l205 -1q45 -1 45 -47l-1 -131q0 -46 -46 -45l-201 1q-24 0 -26 -24t21 -28l10 -1l212 -1q70 -1 70 69l4 447q0 70 -69 71h-224
zM1218 1030q-1 -46 -47 -45l-141 1q-46 0 -45 46l1 132q0 45 46 45l141 -1q46 0 46 -46zM1032 1254q-46 1 -45 46l1 122q0 46 46 45l176 -1q19 0 24 19q5 18 -12 27l-30 7l-174 1q-70 1 -71 -69l-3 -447q-1 -70 69 -71l174 -1q70 -1 71 69l1 205q1 46 -46 47zM2047 129
l-49 -43l1 48l-102 -35q-90 -28 -183 -42l-3 76q72 9 141 27q50 13 86 26l24 10l13 7l25 13v35l39 3l48 13l56 29q-14 -52 -42 -98zM1509 -61l-273 294l87 94l360 -388q-29 -37 -114 -65zM599 -63l1 2l419 451l418 -451l76 -82q-159 -39 -373 -39q-441 0 -541 119zM348 99
l-101 35v-48l-49 43l-53 69q-28 46 -43 98l57 -29l48 -13l38 -3l1 -35l24 -13l14 -7l23 -10q37 -13 87 -26q69 -18 140 -27l-3 -76q-93 14 -183 42zM1636 444q0 -92 -92 -92t-92 92q0 91 92 91t92 -91zM2280 1086q0 -152 -334 -259t-806 -107q-471 0 -804 107
q-333 106 -336 257v-1115q0 -153 334 -261q334 -107 806 -107t806 107q334 108 334 261v1117z" />
    <glyph glyph-name="msvs" unicode="&#xf021;" horiz-adv-x="1913" 
d="M309 565l-161 259l-148 -259h99q24 -334 271 -556t580 -222v123q-271 0 -493 186q-210 185 -235 469h87zM1604 737l148 -259l161 259h-99q-37 334 -284 556q-246 222 -580 222v-124q284 0 494 -185q210 -197 247 -469h-87zM1222 342q-148 0 -148 -148v-444
q0 -148 148 -148h444q148 0 148 148v444q0 148 -148 148h-444zM210 1515q0 62 62 62h370q61 0 61 -62v-370q0 -62 -61 -62h-370q-62 0 -62 62v370zM642 960q185 0 185 185v370q0 185 -185 185h-370q-186 0 -186 -185v-370q0 -185 186 -185h370z" />
    <glyph glyph-name="mvideo" unicode="&#xf022;" horiz-adv-x="2429" 
d="M2202 758h-170v178h170v-178zM2202 364h-170v178h170v-178zM979 279q-25 -16 -51 -2q-26 15 -26 45v657q0 29 26 44q26 14 51 -2l524 -328q24 -15 24 -43t-24 -43zM396 758h-170v178h170v-178zM396 364h-170v178h170v-178zM2236 1301q-34 0 -34 -34v-116h-170v116
q0 34 -34 34h-1568q-34 0 -34 -34v-116h-169v116q0 34 -34 34h-159q-34 0 -34 -34v-1234q0 -34 34 -34h159q34 0 34 34v116h169v-116q0 -34 34 -34h1568q34 0 34 34v116h170v-116q0 -34 34 -34h159q34 0 34 34v1234q0 34 -34 34h-159z" />
    <glyph glyph-name="mexperiment" unicode="&#xf023;" horiz-adv-x="1766" 
d="M300 1476l63 64l53 -53l-63 -64zM613 -100q58 108 180 108t180 -108h-360zM1256 581q-19 -19 -46 -19t-46 19l-8 6l94 94l6 -8q47 -46 0 -92zM1079 381q-71 0 -71 -72q0 -71 71 -71h245q-85 -157 -240 -246q-103 158 -291 158q-190 0 -292 -161q-139 70 -229 197
q-111 159 -111 353q0 152 71 285q65 125 179 209l484 -484q46 -46 111 -46q25 0 49 8q5 -14 15 -24q58 -58 140 -58t140 58t58 140t-58 140q-10 10 -24 15q30 92 -38 160l-597 597q-46 46 -111 46q-33 0 -62 -12l-1 1l-107 106q-19 20 -47 20q-27 0 -46 -20l-158 -157
q-19 -19 -19 -47q0 -27 19 -47l107 -106q-14 -32 -14 -65q0 -66 46 -112l11 -11q-128 -101 -204 -244q-86 -165 -86 -352q0 -239 137 -435q86 -123 213 -204h-38q-137 0 -234 -76t-97 -184q0 -41 51 -41h1506q51 0 51 41q0 108 -97 184t-234 76h-71q189 129 277 338h212
q71 0 71 71q0 72 -71 72h-616z" />
    <glyph glyph-name="mimage" unicode="&#xf024;" horiz-adv-x="2102" 
d="M2102 -169v1636q0 96 -68.5 164.5t-164.5 68.5h-1636q-96 0 -164.5 -68.5t-68.5 -164.5v-1636q0 -96 68.5 -164.5t164.5 -68.5h1636q96 0 164.5 68.5t68.5 164.5v0zM643 474l290 -350l411 525l525 -701h-1636l410 526v0z" />
  </font>
</defs>
</svg>
